<svg width="25" height="26" viewBox="0 0 25 26" fill="none" xmlns="http://www.w3.org/2000/svg">
<path d="M8.40596 0.276855V5.36077H6.37239V3.3272H0.271698V21.6293H2.30526V22.6461C2.30526 23.4722 2.60182 24.1818 3.19495 24.775C3.80925 25.3893 4.52947 25.6964 5.35561 25.6964C6.18175 25.6964 6.89138 25.3893 7.4845 24.775C8.0988 24.1818 8.40596 23.4722 8.40596 22.6461V21.6293H24.6745V5.36077H20.6073V0.276855H8.40596ZM10.4395 2.31042H18.5738V7.39433H10.4395V2.31042ZM2.30526 5.36077H4.33883V19.5957H2.30526V5.36077ZM6.37239 7.39433H8.40596V9.4279H20.6073V7.39433H22.6409V19.5957H6.37239V7.39433ZM9.42274 11.4615V13.495H11.4563V11.4615H9.42274ZM13.4899 11.4615V13.495H15.5234V11.4615H13.4899ZM17.557 11.4615V13.495H19.5906V11.4615H17.557ZM9.42274 15.5286V17.5622H11.4563V15.5286H9.42274ZM13.4899 15.5286V17.5622H15.5234V15.5286H13.4899ZM17.557 15.5286V17.5622H19.5906V15.5286H17.557ZM4.33883 21.6293H6.37239V22.6461C6.37239 22.9214 6.26648 23.1651 6.05465 23.3769C5.864 23.5675 5.63099 23.6629 5.35561 23.6629C5.08023 23.6629 4.83663 23.5675 4.6248 23.3769C4.43415 23.1651 4.33883 22.9214 4.33883 22.6461V21.6293Z" fill="#4CB9C1"/>
</svg>