<svg width="30" height="29" viewBox="0 0 30 29" fill="none" xmlns="http://www.w3.org/2000/svg">
    <path d="M16.7057 0.0205078V2.01243C18.6759 2.01243 20.5216 2.51041 22.243 3.50638C23.8813 4.48159 25.1879 5.78879 26.1626 7.42798C27.158 9.15016 27.6558 10.9968 27.6558 12.968H29.6467C29.6467 10.6234 29.0556 8.44469 27.8735 6.43202C26.7329 4.48159 25.1879 2.93577 23.2384 1.79457C21.2268 0.61186 19.0492 0.0205078 16.7057 0.0205078ZM6.40898 3.00839C5.84903 3.00839 5.36168 3.18476 4.9469 3.5375L1.74278 6.8055L1.8361 6.74325C1.31763 7.17899 0.975446 7.71847 0.809536 8.36169C0.664366 9.00492 0.705843 9.62739 0.933968 10.2291C1.51465 11.8476 2.29235 13.5075 3.26707 15.2089C4.63582 17.5536 6.26381 19.6596 8.15103 21.5271C11.1789 24.5772 14.9429 26.9841 19.4432 28.7478H19.4743C20.0758 28.9553 20.6772 28.9968 21.2786 28.8723C21.9008 28.7478 22.4503 28.4781 22.9273 28.0631L26.0692 24.9196C26.484 24.5046 26.6914 23.9962 26.6914 23.3945C26.6914 22.772 26.484 22.2533 26.0692 21.8383L21.9941 17.73C21.5793 17.315 21.0609 17.1075 20.4387 17.1075C19.8165 17.1075 19.2981 17.315 18.8833 17.73L16.9235 19.7219C15.3473 18.9749 13.9786 18.0516 12.8172 16.9519C11.6559 15.8314 10.733 14.4723 10.0486 12.8746L12.0395 10.8827C12.475 10.4262 12.6928 9.88676 12.6928 9.26428C12.6928 8.62106 12.4439 8.10233 11.9462 7.70809L12.0395 7.80146L7.87106 3.5375C7.45628 3.18476 6.96892 3.00839 6.40898 3.00839ZM16.7057 4.00436V5.99628C17.9708 5.99628 19.1322 6.30752 20.1898 6.93C21.2682 7.55247 22.1185 8.40319 22.7407 9.48215C23.3628 10.5404 23.6739 11.7023 23.6739 12.968H25.6648C25.6648 11.3496 25.2604 9.84526 24.4516 8.45506C23.6428 7.10636 22.5644 6.02741 21.2164 5.21819C19.8269 4.40897 18.3233 4.00436 16.7057 4.00436ZM6.40898 5.00032C6.4712 5.00032 6.54378 5.03144 6.62674 5.09369L10.7019 9.26428C10.7226 9.34728 10.7019 9.4199 10.6397 9.48215L7.68441 12.4078L7.90216 13.0303L8.30657 13.9017C8.63839 14.6072 9.02205 15.2919 9.45756 15.9559C10.059 16.8896 10.7226 17.6885 11.4485 18.3524C12.4232 19.3069 13.5949 20.1784 14.9637 20.9668C15.6481 21.3611 16.2287 21.6516 16.7057 21.8383L17.3279 22.1184L20.3454 19.0994C20.3868 19.0579 20.418 19.0372 20.4387 19.0372C20.4594 19.0372 20.4905 19.0579 20.532 19.0994L24.7316 23.3011C24.7731 23.3426 24.7938 23.3738 24.7938 23.3945C24.7938 23.3945 24.7731 23.4152 24.7316 23.4567L21.6208 26.538C21.1645 26.9322 20.6668 27.036 20.1276 26.8492C15.8969 25.2101 12.3713 22.9691 9.55089 20.1265C7.80884 18.3836 6.28455 16.402 4.97801 14.1818C4.04477 12.5842 3.31892 11.0383 2.80045 9.5444V9.51327C2.71749 9.32653 2.70713 9.10866 2.76934 8.85967C2.83156 8.58993 2.94562 8.38244 3.11153 8.2372L6.19122 5.09369C6.25344 5.03144 6.32602 5.00032 6.40898 5.00032ZM16.7057 7.98821V9.98013C17.5353 9.98013 18.2404 10.2706 18.8211 10.8516C19.4018 11.4326 19.6921 12.1381 19.6921 12.968H21.683C21.683 12.0758 21.4549 11.2458 20.9986 10.4781C20.5631 9.71039 19.9617 9.10866 19.1944 8.67293C18.427 8.21645 17.5975 7.98821 16.7057 7.98821Z" fill="#4CB9C1"/>
</svg>