<svg width="38" height="38" viewBox="0 0 38 38" fill="none" xmlns="http://www.w3.org/2000/svg">
<path fill-rule="evenodd" clip-rule="evenodd" d="M24.9436 6.29471C22.1867 5.06629 19.1065 4.76197 16.1624 5.42713C13.2184 6.0923 10.5683 7.69132 8.60724 9.9857C6.64623 12.2801 5.47941 15.1469 5.28082 18.1586C5.08223 21.1703 5.8625 24.1655 7.50527 26.6976C9.14803 29.2296 11.5653 31.1627 14.3965 32.2087C17.2277 33.2547 20.3212 33.3575 23.2155 32.5017C26.1099 31.6459 28.6501 29.8775 30.4573 27.46C32.2645 25.0426 33.2418 22.1058 33.2436 19.0876V17.6577C33.2436 16.7988 33.9398 16.1025 34.7987 16.1025C35.6576 16.1025 36.3539 16.7988 36.3539 17.6577V19.0884C36.3518 22.7774 35.1573 26.3678 32.9485 29.3224C30.7397 32.277 27.635 34.4384 24.0974 35.4844C20.5599 36.5303 16.7789 36.4047 13.3186 35.1263C9.85822 33.8479 6.90381 31.4851 4.89599 28.3905C2.88816 25.2958 1.9345 21.6349 2.17722 17.954C2.41994 14.273 3.84605 10.7691 6.24285 7.96485C8.63965 5.1606 11.8787 3.20624 15.477 2.39326C19.0753 1.58028 22.8399 1.95223 26.2095 3.45364C26.9941 3.80321 27.3467 4.72259 26.9971 5.50713C26.6475 6.29167 25.7282 6.64429 24.9436 6.29471Z" fill="white"/>
<path fill-rule="evenodd" clip-rule="evenodd" d="M35.8976 5.54699C36.5053 6.15402 36.5058 7.1387 35.8987 7.74633L20.347 23.3136C20.0554 23.6055 19.6598 23.7695 19.2472 23.7696C18.8346 23.7698 18.4389 23.6059 18.1471 23.3141L13.4816 18.6486C12.8743 18.0413 12.8743 17.0566 13.4816 16.4493C14.089 15.842 15.0736 15.842 15.681 16.4493L19.2463 20.0146L33.6983 5.54809C34.3053 4.94045 35.29 4.93996 35.8976 5.54699Z" fill="white"/>
</svg>