<svg width="39" height="38" viewBox="0 0 39 38" fill="none" xmlns="http://www.w3.org/2000/svg">
<path fill-rule="evenodd" clip-rule="evenodd" d="M19.5595 5.09228C11.8294 5.09228 5.56298 11.3587 5.56298 19.0888C5.56298 26.8189 11.8294 33.0854 19.5595 33.0854C27.2896 33.0854 33.5561 26.8189 33.5561 19.0888C33.5561 11.3587 27.2896 5.09228 19.5595 5.09228ZM2.45264 19.0888C2.45264 9.64095 10.1116 1.98193 19.5595 1.98193C29.0074 1.98193 36.6664 9.64095 36.6664 19.0888C36.6664 28.5367 29.0074 36.1957 19.5595 36.1957C10.1116 36.1957 2.45264 28.5367 2.45264 19.0888Z" fill="white"/>
<path fill-rule="evenodd" clip-rule="evenodd" d="M19.5593 8.20264C20.4182 8.20264 21.1145 8.89891 21.1145 9.75781V18.1277L26.4755 20.8082C27.2437 21.1923 27.5551 22.1264 27.171 22.8947C26.7869 23.6629 25.8527 23.9743 25.0845 23.5902L18.8638 20.4798C18.337 20.2164 18.0042 19.6779 18.0042 19.0888V9.75781C18.0042 8.89891 18.7004 8.20264 19.5593 8.20264Z" fill="white"/>
</svg>
