<svg width="18" height="18" viewBox="0 0 18 18" fill="none" xmlns="http://www.w3.org/2000/svg">
<mask id="mask0_828_169" style="mask-type:luminance" maskUnits="userSpaceOnUse" x="0" y="0" width="18" height="18">
<path d="M17.611 0.593506H0.322266V17.8822H17.611V0.593506Z" fill="white"/>
</mask>
<g mask="url(#mask0_828_169)">
<path d="M17.1905 8.21807L16.0114 7.03889C15.7317 6.75926 15.503 6.20584 15.503 5.80887V4.14082C15.503 3.34687 14.8557 2.6996 14.0617 2.6996H12.3937C11.9967 2.6996 11.4433 2.4708 11.1637 2.19117L9.98451 1.01199C9.42522 0.45271 8.50806 0.45271 7.94683 1.01199L6.76766 2.19117C6.48801 2.4708 5.93264 2.6996 5.53763 2.6996H3.86958C3.07759 2.6996 2.42836 3.34687 2.42836 4.14082V5.80887C2.42836 6.20388 2.19957 6.75926 1.91992 7.03889L0.740749 8.21807C0.179516 8.77734 0.179516 9.69446 0.740749 10.2557L1.91992 11.4349C2.19957 11.7146 2.42836 12.2699 2.42836 12.6649V14.3329C2.42836 15.1249 3.07759 15.7742 3.86958 15.7742H5.53763C5.9346 15.7742 6.48801 16.0029 6.76766 16.2826L7.94683 17.4618C8.50611 18.0211 9.42323 18.0211 9.98451 17.4618L11.1637 16.2826C11.4433 16.0029 11.9967 15.7742 12.3937 15.7742H14.0617C14.8537 15.7742 15.503 15.1249 15.503 14.3329V12.6649C15.503 12.268 15.7317 11.7146 16.0114 11.4349L17.1905 10.2557C17.7498 9.69645 17.7498 8.7793 17.1905 8.21807Z" fill="#4CB9C1"/>
<path d="M8.00529 12.4515L4.87061 9.31677L6.24337 7.944L8.00529 9.70594L11.6875 6.02368L13.0603 7.39646L8.00529 12.4515Z" fill="white"/>
</g>
</svg>