<svg width="23" height="18" viewBox="0 0 23 18" fill="none" xmlns="http://www.w3.org/2000/svg">
<path d="M8.59732 0.000206745L2.15506 0.000206182C1.55898 0.00020613 1.05079 0.210362 0.630472 0.630676C0.210158 1.05099 1.36892e-06 1.55919 1.31681e-06 2.15527L7.53606e-07 8.59753C7.01495e-07 9.19361 0.210157 9.7018 0.630471 10.1221C1.05078 10.5424 1.55898 10.7526 2.15506 10.7526L5.04376 10.7526L3.96623 16.3695C3.92038 16.5835 3.97005 16.7784 4.11525 16.9541C4.26045 17.1299 4.44004 17.2178 4.65402 17.2178L6.99249 17.2178C7.29817 17.2178 7.57711 17.1261 7.82929 16.9427C8.08148 16.7593 8.25343 16.5147 8.34513 16.209L10.4773 11.1882C10.6607 10.4851 10.7524 9.7744 10.7524 9.05605L10.7524 2.15527C10.7524 1.55919 10.5422 1.05099 10.1219 0.630677C9.7016 0.210362 9.1934 0.000206797 8.59732 0.000206745ZM9.33096 9.05605C9.33096 9.63685 9.25454 10.2024 9.1017 10.7526L6.99249 15.7734L5.52521 15.7734L6.62567 10.1794C6.67152 9.96546 6.62185 9.77058 6.47665 9.59482C6.33145 9.41905 6.14422 9.33116 5.91496 9.33116L2.15506 9.33116C1.95637 9.33116 1.78824 9.25857 1.65069 9.11337C1.51313 8.96817 1.44435 8.80386 1.44435 8.62045L1.44435 2.15527C1.44435 1.95657 1.51313 1.78845 1.65069 1.65089C1.78824 1.51333 1.95637 1.44456 2.15506 1.44456L8.59732 1.44456C8.79602 1.44456 8.96796 1.51334 9.11316 1.65089C9.25836 1.78845 9.33096 1.95657 9.33096 2.15527L9.33096 9.05605ZM20.7941 0.000207812L14.3518 0.000207248C13.7557 0.000207196 13.2475 0.210363 12.8272 0.630677C12.4069 1.05099 12.1967 1.55919 12.1967 2.15527L12.1967 8.59753C12.1967 9.19361 12.4069 9.70181 12.8272 10.1221C13.2475 10.5424 13.7557 10.7526 14.3518 10.7526L17.2405 10.7526L16.14 16.3695C16.1095 16.5835 16.1668 16.7784 16.312 16.9541C16.4572 17.1299 16.6368 17.2178 16.8507 17.2178L19.1663 17.2178C19.4873 17.2178 19.7738 17.1261 20.026 16.9427C20.2782 16.7593 20.4502 16.5147 20.5419 16.209L22.6511 11.1882C22.8498 10.4851 22.9491 9.77441 22.9491 9.05605L22.9491 2.15527C22.9491 1.55919 22.739 1.05099 22.3186 0.630678C21.8983 0.210363 21.3901 0.000207864 20.7941 0.000207812ZM21.5048 9.05605C21.5048 9.63685 21.436 10.2024 21.2984 10.7526L19.1663 15.7734L17.7219 15.7734L18.8224 10.1794C18.853 9.96546 18.7957 9.77058 18.6505 9.59482C18.5053 9.41905 18.3257 9.33117 18.1117 9.33117L14.3518 9.33117C14.1531 9.33117 13.9812 9.25857 13.836 9.11337C13.6908 8.96817 13.6182 8.80386 13.6182 8.62045L13.6182 2.15527C13.6182 1.95657 13.6908 1.78845 13.836 1.65089C13.9812 1.51334 14.1531 1.44456 14.3518 1.44456L20.7941 1.44456C20.9927 1.44456 21.1609 1.51334 21.2984 1.65089C21.436 1.78845 21.5048 1.95658 21.5048 2.15527L21.5048 9.05605Z" fill="#4CB9C1"/>
</svg>