<svg width="56" height="50" viewBox="0 0 56 50" fill="none" xmlns="http://www.w3.org/2000/svg">
<path d="M55.0422 23.387C53.8929 37.5502 42.3271 48.6779 28.228 48.6779C13.3644 48.677 1.31689 36.3143 1.31689 21.0648C1.31689 19.6939 1.41468 18.3477 1.60313 17.0315C2.76139 25.6874 9.94829 37.6624 17.2668 36.5268C18.3477 36.3599 19.2695 35.9011 20.1157 35.1897C24.9203 31.1491 26.8066 31.274 29.9792 30.8253C33.2611 30.3592 37.9821 30.0099 37.9821 30.0099C37.9821 30.0099 38.7652 34.7747 34.606 35.5026C29.5685 36.3846 27.6511 38.8846 27.6511 38.8846C27.6511 38.8846 33.2504 43.4716 40.3111 39.3097C51.8083 32.5318 49.9034 22.5862 55.0422 23.387Z" stroke="#18466F" stroke-width="1.69272" stroke-miterlimit="10"/>
<path d="M47.2638 28.8067C47.2823 28.5798 47.2928 28.3484 47.2928 28.1144C47.2928 24.7958 45.2888 22.0426 42.6645 21.5263C43.9289 21.1359 44.8498 19.9371 44.8498 18.5204C44.8498 16.7838 43.4707 15.3768 41.7681 15.3768C40.0656 15.3768 38.6847 16.7829 38.6847 18.5204C38.6847 19.9371 39.6047 21.135 40.8709 21.5263C38.7303 21.9479 37.0023 23.8551 36.4372 26.3448C35.4611 23.1378 33.0199 20.7089 30.0241 20.1015C31.667 19.4869 32.8368 17.8808 32.8368 15.9941C32.8368 13.5786 30.9169 11.6214 28.5476 11.6214C26.1783 11.6214 24.2567 13.5786 24.2567 15.9941C24.2567 17.8808 25.4282 19.4869 27.0712 20.1015C24.0745 20.7089 21.6324 23.1378 20.6563 26.3448C20.0903 23.856 18.3632 21.9479 16.2243 21.5263C17.4887 21.1359 18.4097 19.9371 18.4097 18.5204C18.4097 16.7838 17.0305 15.3768 15.328 15.3768C13.6255 15.3768 12.2445 16.7829 12.2445 18.5204C12.2445 19.9371 13.1646 21.135 14.4307 21.5263C11.8055 22.0426 9.80072 24.7949 9.80072 28.1144C9.80072 28.3466 9.81123 28.5753 9.82963 28.8031C3.17555 20.4079 2.28443 9.50965 8.24103 4.14449C14.7707 -1.7361 23.2149 0.97149 28.5485 6.49387C33.8803 0.97149 42.3245 -1.7361 48.8542 4.14449C54.8108 9.50965 53.9197 20.4097 47.2638 28.8067Z" stroke="#18466F" stroke-width="1.69272" stroke-miterlimit="10"/>
</svg>