<svg width="67" height="42" viewBox="0 0 67 42" fill="none" xmlns="http://www.w3.org/2000/svg">
    <g clip-path="url(#clip0_391_122)">
    <path d="M37.8793 29.1281C40.1768 27.6082 41.6995 25.0096 41.6995 22.0634C41.6995 17.3877 37.8794 13.5857 33.1814 13.5857C28.4834 13.5857 24.6632 17.3877 24.6632 22.0634C24.6632 25.0096 26.1859 27.6082 28.4834 29.1281C23.2794 31.0403 19.5532 36.0101 19.5532 41.8446H21.8238C21.8238 35.6134 26.9204 30.541 33.1814 30.541C39.4424 30.541 44.5389 35.6134 44.5389 41.8446H46.8095C46.8095 36.0101 43.0834 31.0403 37.8793 29.1281ZM33.1814 28.2812C29.7374 28.2812 26.9338 25.491 26.9338 22.0634C26.9338 18.6358 29.7374 15.8455 33.1814 15.8455C36.6254 15.8455 39.4289 18.6358 39.4289 22.0634C39.4289 25.491 36.6254 28.2812 33.1814 28.2812Z" fill="#18466F"/>
    <path d="M49.2368 23.4765C51.5342 21.9566 53.0569 19.358 53.0569 16.4118C53.0569 11.7361 49.2368 7.93408 44.5388 7.93408C42.2637 7.93408 40.1991 8.82999 38.6674 10.283C38.1031 10.8224 37.6105 11.433 37.2119 12.1105C37.9195 12.3958 38.5958 12.7479 39.2183 13.1713C39.6214 12.5206 40.1364 11.9501 40.741 11.4865C41.7934 10.6797 43.1057 10.1984 44.5343 10.1984C47.9783 10.1984 50.7818 12.9886 50.7818 16.4162C50.7818 19.2599 48.8471 21.6624 46.2227 22.3978C45.6853 22.5494 45.121 22.6341 44.5343 22.6341C44.3328 22.6341 44.1357 22.6207 43.9387 22.6029C43.8984 23.4185 43.7685 24.2075 43.558 24.9608C43.8804 24.934 44.2029 24.8894 44.5343 24.8894C44.9956 24.8894 45.4479 24.9251 45.8958 24.9786C51.5163 25.6516 55.8918 30.4209 55.8918 36.193H58.1625C58.1625 30.3585 54.4363 25.3886 49.2323 23.4765H49.2368Z" fill="#18466F"/>
    <path d="M21.8236 24.8894C22.155 24.8894 22.4774 24.9296 22.7999 24.9608C22.5849 24.203 22.4595 23.4141 22.4192 22.6029C22.2221 22.6207 22.0251 22.6341 21.8236 22.6341C21.2369 22.6341 20.6726 22.5494 20.1351 22.3978C17.5107 21.6624 15.576 19.2644 15.576 16.4162C15.576 12.9886 18.3796 10.1984 21.8236 10.1984C23.2522 10.1984 24.5644 10.6842 25.6169 11.4865C26.2215 11.9501 26.741 12.5206 27.1396 13.1713C27.7666 12.7479 28.4383 12.3958 29.1459 12.1105C28.7429 11.4375 28.2547 10.8224 27.6904 10.283C26.1632 8.82999 24.0942 7.93408 21.8191 7.93408C17.1211 7.93408 13.3009 11.7361 13.3009 16.4118C13.3009 19.358 14.8191 21.9566 17.1211 23.4765C11.9171 25.3886 8.19092 30.3585 8.19092 36.193H10.4615C10.4615 30.4209 14.8371 25.6516 20.4576 24.9786C20.9055 24.9251 21.3578 24.8894 21.8191 24.8894H21.8236Z" fill="#18466F"/>
    <path d="M57.186 15.5649C59.4835 14.0449 61.0062 11.4464 61.0062 8.50014C61.0062 3.82449 57.186 0.0224609 52.488 0.0224609C50.2129 0.0224609 48.1483 0.918367 46.6167 2.37143C46.0524 2.91076 45.5597 3.5214 45.1611 4.1989C45.8687 4.48416 46.545 4.83628 47.1675 5.25972C47.5706 4.60896 48.0856 4.03844 48.6902 3.57488C49.7427 2.76812 51.0549 2.28674 52.4835 2.28674C55.9275 2.28674 58.7311 5.07698 58.7311 8.5046C58.7311 11.0096 57.2308 13.1669 55.0811 14.1475C55.1751 14.6823 55.2333 15.2306 55.2333 15.7966C55.2333 16.3092 55.1796 16.8084 55.099 17.3032C60.1015 18.4844 63.8411 22.9505 63.8411 28.2858H66.1117C66.1117 22.4513 62.3855 17.4815 57.1815 15.5693L57.186 15.5649Z" fill="#18466F"/>
    <path d="M11.1244 15.7918C11.1244 15.2302 11.1827 14.6819 11.2767 14.1426C9.12701 13.162 7.6267 11.0047 7.6267 8.49971C7.6267 5.07209 10.4303 2.28186 13.8742 2.28186C15.3029 2.28186 16.6151 2.7677 17.6676 3.57C18.2722 4.03356 18.7917 4.60408 19.1903 5.25484C19.8172 4.8314 20.489 4.47928 21.1966 4.19402C20.7936 3.52097 20.3054 2.90587 19.7411 2.36655C18.2139 0.913484 16.1449 0.0175781 13.8698 0.0175781C9.17627 0.0220354 5.35609 3.82406 5.35609 8.49971C5.35609 11.446 6.87879 14.0445 9.17627 15.5644C3.97223 17.4766 0.246094 22.4464 0.246094 28.281H2.51671C2.51671 22.9456 6.25627 18.475 11.2588 17.2983C11.1782 16.808 11.1244 16.3088 11.1244 15.7918Z" fill="#18466F"/>
    <path d="M33.181 2.28228C36.2174 2.28228 38.7299 4.46188 39.2852 7.32343C40.5303 6.57907 41.426 6.40969 41.426 6.40969C40.4855 2.74584 37.1535 0.0224609 33.181 0.0224609C29.2085 0.0224609 25.872 2.74584 24.936 6.40969C24.936 6.40969 25.8317 6.57461 27.0768 7.32343C27.6321 4.46188 30.1446 2.28228 33.181 2.28228Z" fill="#18466F"/>
    </g>
    <defs>
    <clipPath id="clip0_391_122">
    <rect width="65.8702" height="41.8223" fill="white" transform="translate(0.246094 0.0224609)"/>
    </clipPath>
    </defs>
</svg>