<svg width="33" height="33" viewBox="0 0 33 33" fill="none" xmlns="http://www.w3.org/2000/svg">
    <g clip-path="url(#clip0_550_170)">
    <path d="M32.0334 32.0289V31.6663C32.0334 29.4431 32.0437 27.2198 32.0308 24.9966C32.0179 22.8198 31.0004 21.2841 29.0161 20.3947C28.2556 20.0535 27.483 19.7355 26.6563 19.3823C27.5062 19.0661 28.1568 18.5909 28.6397 17.893C29.6246 16.4716 29.6125 14.624 28.5314 13.273C27.6377 12.1559 27.2252 10.9192 27.2493 9.4918C27.2664 8.4107 27.2707 7.315 27.1186 6.24852C26.6864 3.22438 24.073 0.6325 21.0575 0.128047C20.8271 0.089375 20.5977 0.0429688 20.3674 0H18.9494C18.8789 0.0197656 18.8093 0.048125 18.738 0.0592969C15.6907 0.527656 13.6153 2.20859 12.5032 5.07719C12.1861 5.89531 12.0718 6.75727 12.0641 7.63297C12.0598 8.19156 12.0366 8.75188 12.0684 9.30789C12.1518 10.8101 11.6559 12.0905 10.7364 13.2662C9.12246 15.3295 9.9509 18.2952 12.3795 19.2852C12.4517 19.3145 12.5204 19.3523 12.6425 19.4107C11.8123 19.7716 11.0363 20.1034 10.2637 20.4445C8.27254 21.3245 7.25332 22.8594 7.22926 25.0327C7.21035 26.8151 7.22496 28.5974 7.22754 30.3798C7.22754 30.4966 7.2284 30.6195 7.26278 30.7295C7.33582 30.9624 7.51285 31.081 7.75348 31.0595C7.99238 31.0372 8.14621 30.8928 8.18317 30.6505C8.19949 30.5456 8.19176 30.4365 8.19176 30.3291C8.19262 28.5364 8.17285 26.742 8.19863 24.9494C8.22184 23.2899 9.00129 22.0877 10.5181 21.395C11.4823 20.9533 12.462 20.5434 13.4357 20.1214C13.5096 20.0888 13.5895 20.0707 13.684 20.0415V22.9178C13.2139 22.9178 12.7654 22.9127 12.3168 22.9187C11.3457 22.9307 10.7218 23.6002 10.8172 24.5618C10.9968 26.3665 11.1953 28.1686 11.3852 29.9724C11.4565 30.6505 11.5244 31.3285 11.5975 32.0332H11.1807C10.0463 32.0332 8.91278 32.0332 7.7784 32.0332C7.65809 32.0332 7.54637 32.102 7.49481 32.2111C7.41488 32.3795 7.3702 32.554 7.42176 32.7663C7.42176 32.7663 7.42176 32.768 7.42176 32.7688C7.45613 32.9055 7.58332 32.9991 7.72426 32.9991H32.9993V32.3546C32.7905 31.9679 32.4132 32.0341 32.0325 32.028L32.0334 32.0289ZM26.3091 10.322C26.3117 10.3589 26.3143 10.395 26.3186 10.432C26.3203 10.4638 26.3237 10.4947 26.3272 10.5256C26.3306 10.5609 26.3349 10.597 26.3392 10.6313C26.3443 10.6726 26.3495 10.713 26.3555 10.7542C26.3589 10.7791 26.3632 10.8049 26.3675 10.8307C26.3779 10.9029 26.3907 10.9742 26.4045 11.0447C26.4251 11.1495 26.4483 11.2544 26.4741 11.3566C26.4844 11.3979 26.4947 11.4391 26.5059 11.4795C26.5154 11.5122 26.5239 11.5448 26.5343 11.5775C26.5437 11.6102 26.5532 11.642 26.5635 11.6746C26.5764 11.7159 26.5893 11.7571 26.603 11.7984C26.6168 11.8379 26.6305 11.8783 26.6451 11.9178C26.6529 11.9402 26.6614 11.9634 26.6709 11.9857C26.6915 12.0407 26.7121 12.0948 26.7345 12.149C26.756 12.2014 26.7783 12.253 26.8007 12.3054C26.8032 12.3114 26.8058 12.3166 26.8084 12.3226C26.8307 12.3724 26.8539 12.4223 26.8771 12.4713C26.9218 12.5649 26.9691 12.6577 27.0189 12.7488C27.0275 12.7652 27.0361 12.7815 27.0464 12.7978C27.0731 12.8459 27.1006 12.8941 27.1289 12.9422C27.1582 12.992 27.1882 13.0419 27.2183 13.0909C27.2192 13.0926 27.2209 13.0943 27.2218 13.096C27.2544 13.1467 27.2871 13.1974 27.3206 13.2481C27.4022 13.3719 27.489 13.4948 27.5818 13.6151C27.6162 13.6615 27.6523 13.707 27.6884 13.7526C29.1072 15.528 28.2298 18.0589 26.0444 18.5316C25.0896 18.7378 24.2337 18.4989 23.4757 17.9171C23.2532 17.7461 23.0675 17.502 22.924 17.2563C22.5717 16.6547 22.6052 16.592 23.1509 16.1932C23.193 16.1623 23.2351 16.1313 23.2755 16.0995C23.3133 16.0712 23.3494 16.042 23.3855 16.0127C23.395 16.0059 23.4036 15.9981 23.4121 15.9913C23.4414 15.9672 23.4697 15.944 23.4972 15.9199C23.5411 15.8821 23.584 15.8443 23.6261 15.8056C23.6622 15.7738 23.6975 15.7403 23.7318 15.7077C23.7714 15.6698 23.8092 15.6312 23.847 15.5925C23.8788 15.5598 23.9097 15.5272 23.9407 15.4937C23.9759 15.4559 24.0111 15.4163 24.0455 15.3777C24.1005 15.3132 24.1538 15.2479 24.2054 15.1817C24.2105 15.1748 24.2157 15.168 24.2208 15.1611C24.2457 15.1284 24.2698 15.0958 24.2939 15.0631C24.3205 15.0262 24.3471 14.9884 24.3729 14.9505C24.4039 14.9059 24.4331 14.8603 24.4614 14.8148C24.4709 14.7993 24.4812 14.7838 24.4898 14.7675C24.5156 14.7271 24.5396 14.6859 24.5629 14.6438C24.5646 14.642 24.5654 14.6403 24.5663 14.6386C24.5929 14.5922 24.6179 14.5449 24.6419 14.4977C24.6479 14.4891 24.6522 14.4796 24.6565 14.4702C24.6823 14.4212 24.7064 14.3713 24.7296 14.3215C24.7313 14.3189 24.7321 14.3155 24.7339 14.312C24.7554 14.2639 24.7768 14.2158 24.7975 14.1668C24.8061 14.1479 24.8138 14.1281 24.8207 14.1084C24.8379 14.0688 24.8533 14.0284 24.8679 13.988C24.8705 13.982 24.8731 13.9752 24.8757 13.9683C24.8963 13.9116 24.9152 13.854 24.9341 13.7964C24.9779 13.6615 25.0157 13.524 25.0467 13.3822C25.0785 13.2413 25.1043 13.0977 25.124 12.9508C25.1378 12.8528 25.1481 12.7531 25.1567 12.6526C25.161 12.6027 25.1644 12.552 25.167 12.5013C25.1721 12.3991 25.1756 12.2959 25.1756 12.192C25.1764 11.9917 25.1773 11.7915 25.1773 11.5913C25.1799 10.7499 25.1773 9.90773 25.1773 9.06641V8.68055H26.2936C26.2936 9.01227 26.2988 9.34398 26.2936 9.67656C26.2919 9.7625 26.2919 9.90258 26.2936 9.98766C26.2936 10.0332 26.2954 10.0779 26.2979 10.1234C26.2988 10.1604 26.3005 10.1973 26.3039 10.2334C26.3039 10.2635 26.3065 10.2927 26.3091 10.322ZM24.5766 20.5726C24.574 20.6173 24.452 20.6731 24.3764 20.6946C22.1729 21.3211 19.9308 21.5497 17.6535 21.2807C16.7606 21.175 15.8806 20.9696 14.9929 20.8209C14.7488 20.7797 14.6938 20.6688 14.6603 20.4222C14.5735 19.7802 14.7986 19.4485 15.4286 19.2363C16.5045 18.8753 17.1997 18.0993 17.4936 16.9873C17.5014 16.958 17.5246 16.9331 17.5392 16.9099C18.9391 17.1437 20.3347 17.1463 21.6487 16.9211C21.9426 17.4101 22.185 17.8999 22.5072 18.3296C22.8991 18.853 23.5015 19.0953 24.0902 19.3394C24.2629 19.4107 24.5362 19.4915 24.5637 19.6135C24.6316 19.9195 24.5938 20.252 24.5766 20.5726ZM24.5783 21.6511V22.8895H14.6904V21.7473C16.3275 22.1555 17.9697 22.373 19.6361 22.3549C21.3041 22.3369 22.9446 22.1031 24.5783 21.6511ZM26.2979 7.67938C24.9393 7.82117 23.7198 7.5625 22.6069 6.83031C22.5442 6.78906 22.4866 6.74008 22.4221 6.70055C22.1643 6.54328 21.8919 6.58453 21.7372 6.80367C21.5825 7.02281 21.6272 7.29524 21.8679 7.48344C22.4333 7.9243 23.0624 8.26117 23.7593 8.41328C24.1589 8.50094 24.2371 8.68313 24.2174 9.04492C24.189 9.56914 24.1813 10.0985 24.2182 10.6227C24.2543 11.1195 24.0782 11.5234 23.8049 11.9066C23.4302 12.4326 22.9464 12.8279 22.3328 13.1252C21.9504 12.4334 21.3213 12.314 20.6183 12.357C20.3614 12.3724 20.1018 12.3535 19.8449 12.3673C19.1264 12.4059 18.5696 12.9714 18.5197 13.7019C18.4733 14.3894 18.9752 15.0623 19.6756 15.1465C20.1938 15.2092 20.7266 15.2015 21.2482 15.1645C21.769 15.1276 22.1248 14.8096 22.368 14.349C22.435 14.2201 22.5588 14.1075 22.6808 14.0233C23.1397 13.7096 23.6089 13.4105 24.1357 13.0659C24.061 13.3057 24.0172 13.5077 23.9372 13.6941C23.3503 15.0545 22.3371 15.9165 20.8521 16.0445C19.899 16.1262 18.9064 16.1356 17.9714 15.962C16.2879 15.6509 15.1114 14.1522 15.0719 12.442C15.0418 11.1659 15.0659 9.88883 15.0659 8.58344C18.9116 7.90109 21.9048 5.92883 24.0713 2.64688C25.5374 4.00039 26.2618 5.65727 26.2979 7.67938ZM21.1168 13.3366C21.3677 13.3564 21.5043 13.5231 21.5147 13.7612C21.5241 13.9872 21.3986 14.1814 21.17 14.196C20.7249 14.2235 20.2746 14.2235 19.8294 14.1934C19.5991 14.178 19.4805 13.9777 19.4934 13.7526C19.5071 13.5154 19.6455 13.3513 19.8982 13.3349C20.1001 13.322 20.3047 13.3323 20.5075 13.3323C20.7103 13.3332 20.9148 13.3212 21.1168 13.3366ZM16.4082 1.83992C18.6976 0.545703 21.0042 0.697812 23.2996 2.03156C22.2606 3.69617 20.9406 5.03336 19.2811 6.0182C17.3716 7.15258 15.3306 7.82203 13.0189 7.645C13.1211 5.07891 14.1919 3.09203 16.4082 1.83992ZM11.6825 17.6773C10.6582 16.5696 10.6014 14.9755 11.5829 13.7414C12.56 12.5108 13.0859 11.1315 13.0309 9.54766C13.0214 9.25977 13.03 8.97102 13.03 8.64875H14.0948V9.01055C14.0965 10.1484 14.075 11.287 14.1051 12.424C14.1489 14.1307 14.9353 15.4352 16.3618 16.3505C16.5741 16.4871 16.599 16.6143 16.5363 16.8214C16.3816 17.3327 16.0929 17.7427 15.6546 18.052C14.3208 18.993 12.5677 18.633 11.6825 17.6773ZM27.9677 24.5738C27.7709 26.4851 27.5638 28.3955 27.3601 30.3059C27.3008 30.8696 27.2398 31.4334 27.1762 32.0229H12.5763C12.4964 31.2847 12.4139 30.5525 12.3365 29.8203C12.1518 28.0698 11.9661 26.3192 11.7882 24.5678C11.735 24.0427 11.8871 23.8855 12.4182 23.8846C17.3914 23.8838 22.3646 23.8838 27.3378 23.8846C27.8586 23.8855 28.021 24.053 27.9677 24.5738ZM31.0666 32.0083H28.1542C28.2341 31.2495 28.3114 30.5044 28.3905 29.7593C28.5718 28.0509 28.7669 26.3441 28.9319 24.6348C29.035 23.5649 28.4206 22.9204 27.3446 22.9178C26.7671 22.9161 26.1888 22.9178 25.5769 22.9178V19.9934C25.7024 20.038 25.8081 20.0707 25.9095 20.1137C26.8462 20.515 27.7872 20.9052 28.7162 21.3237C30.2476 22.0146 31.0443 23.2186 31.0606 24.8944C31.0838 27.2568 31.0666 29.6192 31.0666 32.0083Z" fill="white"/>
    <path d="M10.1475 9.93953C9.9593 9.8218 9.76937 9.70836 9.56742 9.58633C9.64477 9.49695 9.70063 9.43164 9.75734 9.36805C12.5297 6.27602 11.1409 1.39047 7.1543 0.222578C6.83719 0.129766 6.50977 0.0730469 6.1875 0H5.02734C4.66469 0.0850781 4.29172 0.139219 3.94109 0.259531C1.76773 1.00719 0.474375 2.51883 0.061875 4.78242C0.0464063 4.86492 0.020625 4.9457 0 5.02734V6.1875C0.0214844 6.26914 0.0507031 6.34906 0.0627344 6.43242C0.440859 9.0475 2.78609 11.1487 5.43297 11.2045C6.89133 11.2355 8.35141 11.214 9.81063 11.2114C10.1879 11.2105 10.4337 11.0292 10.5127 10.7181C10.5944 10.395 10.4775 10.1449 10.1475 9.93953ZM8.77078 8.99336C8.32992 9.41789 8.30242 9.70234 8.64102 10.2996C7.29609 10.2437 5.92711 10.3228 4.60969 10.0994C2.3882 9.72297 0.889453 7.66563 0.970234 5.38055C1.04758 3.19773 2.75 1.33031 4.9457 1.01836C6.9343 0.735625 8.86016 1.75313 9.76164 3.56211C10.6511 5.34703 10.291 7.48859 8.86273 8.90398C8.83266 8.93406 8.80172 8.96414 8.77078 8.99336Z" fill="white"/>
    <path d="M19.8731 26.1165C18.8763 26.1165 18.0521 26.9354 18.0435 27.934C18.0349 28.9584 18.841 29.7808 19.8602 29.7868C20.882 29.7929 21.7105 28.9782 21.7139 27.9633C21.7182 26.9569 20.8795 26.1165 19.8731 26.1165ZM19.8723 28.8183C19.3919 28.8175 19.0138 28.4402 19.0112 27.9615C19.0112 27.8575 19.0292 27.757 19.0627 27.6633C19.067 27.6504 19.0722 27.6367 19.0782 27.6238C19.1074 27.5542 19.1461 27.488 19.1917 27.4287C19.2002 27.4158 19.2106 27.4038 19.22 27.3926C19.2286 27.3832 19.2372 27.3737 19.2467 27.3643C19.2509 27.3583 19.2561 27.3531 19.2613 27.3479C19.2707 27.3376 19.2802 27.3282 19.2905 27.3196C19.3059 27.3041 19.3223 27.2904 19.3395 27.2775C19.3489 27.2689 19.3584 27.262 19.3678 27.2551C19.3807 27.2457 19.3936 27.2362 19.4074 27.2268C19.5388 27.1408 19.6952 27.0893 19.8628 27.0858C20.3389 27.0772 20.7531 27.4906 20.7454 27.9675C20.7377 28.4393 20.3484 28.8192 19.8723 28.8183Z" fill="white"/>
    <path d="M4.14562 5.59628C4.15078 5.86182 3.95999 6.06721 3.69703 6.07925C3.41945 6.093 3.20117 5.89018 3.19687 5.61432C3.19171 5.33932 3.40398 5.1262 3.67898 5.1305C3.94195 5.13393 4.14132 5.33245 4.14562 5.59628Z" fill="white"/>
    <path d="M6.07912 5.60482C6.07998 5.87037 5.88576 6.07146 5.62193 6.07919C5.34436 6.08865 5.13037 5.88154 5.13037 5.60568C5.13037 5.32982 5.34607 5.12185 5.62107 5.13044C5.88318 5.13818 6.07912 5.34013 6.07912 5.60482Z" fill="white"/>
    <path d="M8.01288 5.62978C8.00085 5.89275 7.79632 6.08439 7.53077 6.07923C7.25491 6.07493 7.05038 5.85751 7.06413 5.58079C7.07616 5.3204 7.28499 5.12619 7.5471 5.12962C7.82296 5.13478 8.02577 5.3522 8.01288 5.62978Z" fill="white"/>
    </g>
    <defs>
    <clipPath id="clip0_550_170">
    <rect width="33" height="33" fill="white"/>
    </clipPath>
    </defs>
</svg>