<svg width="75" height="94" viewBox="0 0 75 94" fill="none" xmlns="http://www.w3.org/2000/svg">
<path d="M60.3633 23.8633C60.3633 22.0538 58.9108 20.5881 57.1212 20.5881C56.8287 20.5881 56.5459 20.6284 56.2759 20.7011V18.1538C56.2759 7.32076 50.4451 0.269836 38.0149 0.269836C25.5848 0.269836 19.754 7.32076 19.754 18.1538V20.7011C19.4839 20.6284 19.2011 20.5881 18.9087 20.5881C17.1174 20.5881 15.6665 22.0554 15.6665 23.8633C15.6665 25.4178 17.5664 30.9433 19.8658 32.4671C20.9396 42.3445 29.6818 50.0476 38.0165 50.0476C46.3512 50.0476 55.1365 42.3429 56.1704 32.4639C58.4666 30.9368 60.3649 25.4178 60.3649 23.8633H60.3633Z" fill="white"/>
<path d="M74.5874 79.2447C64.8427 88.2361 51.818 93.7302 37.5081 93.7302C23.1982 93.7302 10.1734 88.2361 0.428711 79.2447C0.750409 69.3551 4.73365 61.8434 8.66031 58.9017C16.8725 52.7486 27.4336 50.0476 27.4336 50.0476L32.3253 61.8386L36.1566 54.5902L34.0373 51.2301C34.0826 51.256 35.5278 51.7777 37.5081 51.7777C39.4884 51.7777 40.9352 51.256 40.9789 51.2301L38.8595 54.5902L42.6908 61.8386L47.5826 50.0476C47.5826 50.0476 58.1437 52.7486 66.3559 58.9017C70.2825 61.8434 74.2657 69.3551 74.5874 79.2447Z" fill="white"/>
</svg>