<svg width="1100" height="577" viewBox="0 0 1100 577" fill="none" xmlns="http://www.w3.org/2000/svg" preserveAspectRatio="none">
    <path d="M348.776 50.5611H751.194C758.01 50.5611 764.532 47.8507 769.349 43.0495L803.895 8.52709C808.713 3.71037 815.235 1.01549 822.051 1.01549H1061.41C1082.2 1.01549 1099.05 17.8663 1099.05 38.6354V538.8C1099.05 559.584 1082.2 576.435 1061.41 576.435H38.5936C17.8042 576.435 0.949707 559.584 0.949707 538.8V38.62C0.949707 17.8508 17.8042 1 38.5936 1H277.934C284.75 1 291.272 3.71037 296.09 8.5116L330.636 43.034C335.453 47.8507 341.975 50.5456 348.791 50.5456L348.776 50.5611Z" stroke="url(#paint0_linear_842_194)" stroke-width="0.5" stroke-miterlimit="10"/>
    <defs>
    <linearGradient id="paint0_linear_842_194" x1="550" y1="1" x2="550" y2="576.435" gradientUnits="userSpaceOnUse">
    <stop stop-color="#838383"/>
    <stop offset="0.205" stop-color="white"/>
    </linearGradient>
    </defs>
</svg>