<svg width="42" height="42" viewBox="0 0 42 42" fill="none" xmlns="http://www.w3.org/2000/svg">
    <g clip-path="url(#clip0_556_187)">
    <path d="M8.37891 14.3092C8.42557 14.1949 8.47457 13.993 8.57957 13.8274C9.75441 11.9875 11.1276 10.3087 12.7551 8.85268C13.4901 8.19468 13.8914 8.21802 14.4222 9.04752C15.5107 10.7509 16.5561 12.4845 17.5501 14.2439C18.0237 15.0815 17.9222 15.2799 17.1989 15.9367C16.6809 16.4069 16.1547 16.8677 15.6227 17.3227C15.4069 17.507 15.3602 17.6925 15.4501 17.9725C16.5549 21.4002 18.7167 23.947 21.8772 25.641C22.5772 26.0167 23.3449 26.2734 24.0951 26.5452C24.2374 26.5965 24.5069 26.523 24.6166 26.4087C25.1719 25.8312 25.6852 25.214 26.2289 24.626C26.6956 24.1209 26.9102 24.0602 27.5379 24.3414C29.5154 25.2245 31.3424 26.3679 33.0749 27.6594C33.7457 28.1587 33.7749 28.5157 33.2184 29.1527C31.7496 30.8315 30.0404 32.2362 28.1504 33.4145C27.9182 33.5592 27.5624 33.5954 27.2812 33.5557C24.9456 33.229 22.8292 32.2992 20.8552 31.0578C16.0486 28.0373 12.2569 24.0684 9.74857 18.9385C9.10107 17.6132 8.63557 16.2179 8.43374 14.7455C8.41741 14.63 8.40457 14.5145 8.37891 14.308V14.3092Z" fill="white"/>
    <path d="M21.9019 10.1955V8.40466C24.8594 8.44083 27.4494 9.39516 29.6392 11.3493C32.2327 13.6628 33.5195 16.5888 33.6059 20.0888H31.8092C31.7462 17.3868 30.8105 15.0302 28.8879 13.1087C26.9757 11.1977 24.6354 10.2573 21.9019 10.1955Z" fill="white"/>
    <path d="M27.3362 20.0853C26.8077 16.6156 25.5594 15.3661 21.9089 14.651C21.903 14.5436 21.8914 14.4293 21.8902 14.3161C21.8879 13.8681 21.8902 13.419 21.8902 12.9745C25.4054 12.6898 29.2227 16.0276 29.0512 20.0853H27.3385H27.3362Z" fill="white"/>
    </g>
    <defs>
    <clipPath id="clip0_556_187">
    <rect width="42" height="42" fill="white"/>
    </clipPath>
    </defs>
</svg>