<svg width="48" height="50" viewBox="0 0 48 50" fill="none" xmlns="http://www.w3.org/2000/svg">
    <g clip-path="url(#clip0_174_99)">
    <path d="M36.6825 43.5502C37.2298 43.5289 37.6672 43.1972 38.1279 42.9746C42.9741 40.6341 46.1129 36.8108 47.4391 31.5448C48.2788 28.207 48.0636 24.8551 46.8895 21.6145C46.1808 19.6507 45.2101 17.8172 43.7507 16.2988C43.4022 16.6304 43.4372 17.1516 43.0654 17.4477C42.9016 17.5779 42.9274 17.7651 43.1075 17.9664C44.5833 19.6175 45.4136 21.5979 45.9469 23.7299C46.7351 26.89 46.5737 30.0263 45.4206 33.0324C43.8349 37.1685 40.9978 40.1509 36.9094 41.8446C36.6263 41.963 36.32 42.0744 36.2311 42.4652C36.1095 43.003 35.934 43.5312 35.782 44.0619C35.6955 44.1424 35.5879 44.2087 35.5294 44.3059C35.3516 44.5901 34.9868 44.8933 35.1248 45.1918C35.2628 45.4879 35.7095 45.3174 36.0159 45.3197C37.6484 45.3339 39.2787 45.3363 40.9112 45.3197C41.5965 45.315 41.9286 45.5945 41.9427 46.3123C41.9614 47.3262 41.7205 47.5938 40.6446 47.5938C33.7963 47.5962 26.948 47.5962 20.0996 47.5938C19.0121 47.5938 18.8156 47.4067 18.8179 46.4165C18.8179 45.469 18.9746 45.3268 20.0669 45.3268C22.2538 45.3268 24.4383 45.3292 26.6229 45.3197C26.8357 45.3197 27.1374 45.4311 27.2193 45.1231C27.2684 44.9312 27.0251 44.8673 26.8895 44.7654C26.6696 44.0713 26.0872 43.5312 26.0451 42.7614C26.0171 42.2165 25.7083 41.9512 25.2312 41.7617C23.8162 41.2003 22.5625 40.3522 21.3977 39.3762C19.8938 38.1184 18.722 36.5881 17.7467 34.7759C18.0601 34.7546 18.2613 34.757 18.4554 34.7214C19.5827 34.5201 20.3125 34.9915 20.9721 35.9366C22.1134 37.5735 23.746 38.6466 25.4815 39.5752C26.3422 40.0372 26.3445 39.2199 26.5948 38.8646C26.9573 38.3576 26.3983 38.3174 26.1293 38.1823C24.5436 37.3698 23.1192 36.3654 21.945 34.7238C22.759 34.7238 23.4209 34.7404 24.0781 34.7167C24.6184 34.7001 25.1072 34.5035 25.0768 33.8592C25.0488 33.2669 24.5786 33.1438 24.0641 33.1438C21.1475 33.1485 18.2332 33.158 15.3189 33.1319C14.7202 33.1248 14.6594 33.4138 14.6687 33.8923C14.6781 34.3637 14.6336 34.828 15.3213 34.7238C15.9153 34.6338 16.175 34.9654 16.4346 35.4676C17.7514 38.0165 19.5968 40.0869 21.9661 41.693C23.1192 42.4747 24.3939 43.0101 25.6078 43.6923C23.6337 43.7539 21.6831 43.761 19.7324 43.7515C19.1922 43.7492 18.6963 43.8297 18.3034 44.2443C17.3865 44.8531 16.9889 46.137 17.3374 47.3806C17.6181 48.3921 18.549 49.0625 19.7231 49.0649C26.7421 49.0696 33.7612 49.0673 40.7802 49.0673C42.1742 49.0649 43.0583 48.5272 43.339 47.4185C43.601 46.3691 43.5448 44.7038 42.2538 44.069C40.3031 43.8037 38.3478 43.8534 36.3948 44.0026C36.4135 43.9268 36.4416 43.8558 36.4767 43.7918C36.5281 43.6994 36.5983 43.6189 36.6825 43.5502ZM41.917 7.35392C42.6256 6.66221 43.3484 5.98946 44.0524 5.29064C45.1704 4.18201 45.1797 2.57592 44.0898 1.41755C42.9905 0.244958 41.5521 0.190474 40.3873 1.29437C39.5617 2.07609 38.7454 2.86492 37.9525 3.67981C37.6812 3.95697 37.4216 4.01382 37.0941 3.87643C35.4569 3.2013 34.1728 3.81958 33.0057 4.98032C29.7944 8.17118 26.562 11.3407 23.3601 14.5411C22.8876 15.0125 22.5461 15.0575 22.1555 14.5055C22.0877 14.4108 21.9918 14.3373 21.917 14.2497C21.5732 13.8422 21.1498 13.6362 20.7124 14.0199C20.1979 14.4747 20.4879 14.9082 20.8668 15.3038C21.5544 16.0192 22.1976 16.7796 22.925 17.45C23.3718 17.8598 23.318 18.0944 22.925 18.4829C21.7369 19.6507 20.5791 20.8493 19.4214 22.0456C18.7033 22.7871 18.6004 23.7394 19.1781 24.4263C19.6482 24.9878 20.1441 25.5302 20.668 26.0419C21.5357 26.8947 22.5695 26.8639 23.4349 25.9945C24.5061 24.9191 25.6195 23.8815 26.6252 22.7444C27.2029 22.0906 27.5514 22.2328 28.0356 22.7871C28.7279 23.5759 29.467 24.3221 30.1873 25.0872C30.4329 25.3999 30.6692 25.4544 30.8914 25.0612C31.3966 24.6135 31.3802 24.1894 30.8797 23.7346C30.3628 23.268 30.33 22.8558 30.9218 22.3299C32.0959 21.2852 33.1741 20.1316 34.3295 19.0632C35.0055 18.4378 34.3693 18.118 34.098 17.713C33.7027 17.1231 33.5179 17.7461 33.3425 17.912C32.1169 19.0798 30.9171 20.2808 29.7125 21.4724C29.4857 21.6974 29.3313 21.9959 28.9618 21.5932C27.3783 19.8686 25.7762 18.1654 24.16 16.4741C23.8817 16.1827 23.7928 16.1045 24.1717 15.7681C25.2873 14.7851 26.3281 13.7143 27.39 12.6649C29.7593 10.3245 32.1099 7.96509 34.4956 5.63886C35.3002 4.85477 36.4275 4.94242 37.2087 5.7502C37.5736 6.12922 37.9712 6.47981 38.301 6.88726C38.9465 7.68083 39.9289 8.2612 40.2423 9.23717C40.53 10.1279 41.1475 10.3292 41.8234 10.6632C42.0058 9.91467 41.9591 9.19927 41.6293 8.62837C41.2761 8.01484 41.5568 7.70925 41.9193 7.35392H41.917ZM43.6805 25.7719C43.2969 23.7038 42.5742 21.7851 41.3346 20.0771C40.8013 19.3404 40.2376 19.916 39.833 20.1245C39.3348 20.3803 39.9148 20.712 40.0692 20.9323C40.958 22.183 41.6316 23.5191 41.9333 25.0399C42.3473 26.8331 42.3871 28.6263 41.9403 30.4219C41.9123 30.5949 41.9029 30.7749 41.8538 30.9431C40.8808 34.1813 38.8249 36.491 35.906 38.0568C35.5949 38.2226 35.1856 38.3695 35.5621 38.7982C35.8171 39.0896 35.7469 39.8619 36.5726 39.4284C40.53 37.3556 42.8549 34.0889 43.6828 29.6828C44.0454 28.3776 44.0126 27.0747 43.6805 25.7719ZM38.5957 11.1962C36.5679 11.1844 34.8535 12.8686 34.8137 14.9106C34.7763 16.9289 36.4907 18.6818 38.5209 18.7008C40.6352 18.7197 42.3426 17.0355 42.3309 14.939C42.3192 12.8923 40.6352 11.2057 38.5957 11.1962ZM34.5915 40.1485C33.8618 38.5495 32.4748 37.628 30.9101 37.7015C29.4833 37.7702 28.0519 38.8811 27.5888 40.2812C26.9737 42.1431 27.9209 44.2987 29.6471 44.9668C31.7006 45.7627 33.6606 44.9194 34.6009 42.8324C34.8114 41.937 34.8207 41.0416 34.5915 40.1485ZM31.1252 43.7255C29.895 43.735 28.8729 42.7708 28.8331 41.5627C28.791 40.357 29.8576 39.272 31.0948 39.2531C32.3181 39.2365 33.3145 40.2101 33.3378 41.4443C33.3636 42.7708 32.4444 43.7184 31.1252 43.7255ZM33.1461 9.92651C32.8256 9.63751 32.4537 9.5546 32.1333 9.8744C30.8516 11.1465 29.5909 12.4422 28.3209 13.7285C28.1127 13.9417 28.0589 14.1905 28.1852 14.4534C28.3232 14.74 28.5735 14.8822 28.908 14.9272C29.0202 14.8822 29.184 14.8632 29.2845 14.7708C30.6645 13.5201 31.9906 12.2101 33.2092 10.7959C33.4267 10.5448 33.4384 10.1895 33.1461 9.92651ZM13.8758 13.5201C13.6302 13.3566 13.3753 13.3898 13.118 13.3898C9.18632 13.3898 5.25462 13.3898 1.32292 13.3898C1.11943 13.3898 0.899576 13.3685 0.717142 13.4372C0.415423 13.5556 0.153466 13.7546 0.120721 14.1289C0.0856376 14.515 0.275089 14.7779 0.625925 14.8466C1.22936 14.9651 1.27614 15.3512 1.27614 15.8795C1.25743 20.7901 1.26445 25.6984 1.26445 30.6091C1.26445 35.5197 1.25041 40.3096 1.27146 45.1586C1.28082 47.518 2.7707 49.027 5.0792 49.0625C6.50593 49.0839 7.93266 49.0744 9.3594 49.0625C10.033 49.0578 10.6739 48.9417 11.275 48.5817C12.7672 47.6862 13.2537 46.3312 13.249 44.6399C13.2256 35.117 13.2373 25.5942 13.2396 16.0713C13.2396 15.536 13.0946 15.0006 13.8945 14.7732C14.4699 14.6098 14.4068 13.8778 13.8758 13.5201ZM11.1697 45.2273C11.7615 45.3979 11.6726 45.7817 11.4925 46.1938C11.0832 47.1319 10.3324 47.5725 9.35472 47.5891C7.92799 47.6128 6.49891 47.6128 5.07218 47.5891C4.04073 47.5701 3.12621 46.9092 2.83619 46.0375C2.71924 45.6822 2.61633 45.341 3.16364 45.2463C3.54722 45.1823 3.83724 44.9289 3.80684 44.5285C3.77643 44.14 3.56593 43.7894 3.10283 43.7634C2.87361 43.7492 2.72158 43.7207 2.72626 43.4246C2.7286 43.1404 2.78941 43.003 3.10984 42.9982C3.56827 42.9911 3.81151 42.6453 3.80917 42.2449C3.80684 41.828 3.53318 41.5319 3.07008 41.5414C2.78473 41.5461 2.74263 41.3732 2.73094 41.1434C2.72158 40.9373 2.78941 40.826 3.00693 40.7786C3.43495 40.6862 3.80684 40.4588 3.80216 39.9756C3.79982 39.4805 3.43729 39.2791 2.97652 39.246C2.73328 39.227 2.73328 39.0304 2.73562 38.8551C2.73562 38.649 2.72392 38.4192 3.03266 38.4263C3.53786 38.4382 3.82321 38.1468 3.80684 37.6754C3.79514 37.2632 3.52149 36.9624 3.06774 36.96C2.79175 36.96 2.73328 36.8273 2.72626 36.581C2.72158 36.3204 2.80812 36.2233 3.07008 36.1996C3.50512 36.1617 3.77175 35.8466 3.80216 35.4463C3.83724 34.9938 3.50979 34.7641 3.07944 34.7356C2.81748 34.7191 2.73328 34.5888 2.73094 34.3448C2.7286 34.0795 2.77304 33.8876 3.09581 33.8734C3.54488 33.8568 3.82789 33.5773 3.81619 33.1461C3.80684 32.7316 3.53552 32.4331 3.09815 32.3857C2.8666 32.3573 2.71457 32.317 2.7286 32.0304C2.74263 31.8006 2.77538 31.6324 3.05839 31.6253C3.51681 31.6135 3.76941 31.2937 3.7928 30.8981C3.81619 30.4717 3.52851 30.1874 3.08411 30.1685C2.81982 30.159 2.73094 30.05 2.7286 29.7918C2.72626 29.5099 2.80111 29.3702 3.11218 29.3394C3.5402 29.2991 3.82555 29.0054 3.81151 28.5742C3.79748 28.2023 3.54488 27.9251 3.14493 27.8707C2.88063 27.8351 2.72158 27.7475 2.7286 27.4301C2.73562 27.1339 2.92039 27.115 3.12621 27.0747C3.54488 26.9871 3.82087 26.717 3.80216 26.2859C3.78345 25.8998 3.51213 25.6321 3.11686 25.6084C2.80812 25.5894 2.73562 25.4497 2.72626 25.1678C2.71457 24.8196 2.92039 24.8196 3.16598 24.7769C3.54722 24.713 3.82087 24.4619 3.80216 24.0592C3.78579 23.6896 3.57528 23.384 3.18001 23.3153C2.94144 23.2703 2.73562 23.2727 2.72626 22.9292C2.71457 22.5881 2.897 22.5644 3.14726 22.5265C3.53786 22.4673 3.79748 22.1901 3.80684 21.8087C3.82087 21.38 3.57762 21.0862 3.10984 21.0862C2.79175 21.0839 2.72626 20.8944 2.73094 20.6219C2.73796 20.3922 2.7707 20.2311 3.06072 20.224C3.49576 20.2121 3.80216 19.9563 3.80216 19.5204C3.80216 19.1082 3.53552 18.7884 3.11452 18.7292C2.82683 18.6889 2.71457 18.606 2.72626 18.2981C2.73562 18.0114 2.87595 17.9783 3.10984 17.9593C3.55423 17.9238 3.83256 17.6206 3.80917 17.2037C3.78579 16.8081 3.51915 16.5783 3.06072 16.493C2.40349 16.3698 2.84087 15.7776 2.74497 15.4081C2.65609 15.0693 2.87127 14.9532 3.19638 14.9556C5.8487 14.9627 8.50102 14.9604 11.1533 14.9604C11.4948 14.9604 11.7427 15.0954 11.6913 15.4791C11.6445 15.8416 11.9392 16.384 11.3311 16.4977C10.8961 16.5807 10.6224 16.7299 10.6037 17.2084C10.5826 17.6988 10.8797 17.893 11.2913 17.957C11.5135 17.9925 11.6819 18.0399 11.696 18.3147C11.7123 18.5847 11.565 18.6534 11.3404 18.715C10.9288 18.8287 10.5756 19.0253 10.6014 19.5512C10.6271 20.0368 10.9569 20.1766 11.3592 20.2453C11.5977 20.2856 11.7123 20.4466 11.6866 20.6859C11.6609 20.9228 11.5018 21.0389 11.275 21.0744C10.9031 21.1336 10.613 21.271 10.5967 21.7306C10.578 22.2209 10.8773 22.4104 11.2656 22.5265C11.4597 22.5857 11.6843 22.5928 11.6889 22.8771C11.6936 23.185 11.4972 23.268 11.2399 23.3106C10.8493 23.3722 10.6294 23.6043 10.599 24.0213C10.5663 24.5211 10.9007 24.6822 11.2773 24.7888C11.4784 24.8456 11.6866 24.8598 11.6936 25.1417C11.703 25.4331 11.5463 25.535 11.2796 25.6037C10.9078 25.6984 10.5569 25.8595 10.5943 26.3664C10.6271 26.7976 10.8914 26.9776 11.2633 27.0676C11.4667 27.115 11.6749 27.1742 11.6843 27.4395C11.696 27.757 11.4504 27.8067 11.2212 27.8659C10.8423 27.9607 10.6154 28.1715 10.5943 28.6003C10.5709 29.0669 10.8984 29.2114 11.2212 29.3346C11.441 29.4199 11.6819 29.4294 11.696 29.7468C11.71 30.1353 11.4176 30.1069 11.1697 30.1898C10.868 30.2916 10.5826 30.4385 10.599 30.8625C10.6177 31.2795 10.8142 31.5235 11.2025 31.604C11.4434 31.6537 11.6702 31.6916 11.6866 32.0067C11.7053 32.3502 11.4293 32.3383 11.2165 32.4094C10.861 32.5255 10.599 32.7174 10.592 33.1532C10.585 33.6057 10.8563 33.7762 11.2258 33.8663C11.4644 33.9231 11.6843 34.0037 11.6866 34.3045C11.6889 34.6054 11.4831 34.6812 11.2352 34.7427C10.8797 34.8304 10.585 34.9844 10.5943 35.4439C10.6037 35.8916 10.9054 36.0527 11.2329 36.183C11.441 36.2659 11.7077 36.228 11.6983 36.5834C11.6913 36.9221 11.4644 36.9245 11.2282 36.9742C10.8961 37.0429 10.6388 37.2111 10.606 37.6067C10.5756 38.0118 10.6856 38.3079 11.1159 38.3979C11.4972 38.6703 11.9532 38.9356 11.0972 39.1938C10.8867 39.2554 10.6575 39.3644 10.6435 39.6558C10.4517 40.248 10.7908 40.5346 11.2562 40.7454C11.4574 40.8355 11.7427 40.8402 11.6796 41.1908C11.6351 41.4324 11.4901 41.5319 11.2562 41.5509C10.854 41.5864 10.613 41.7949 10.6037 42.2307C10.592 42.6998 10.8376 42.9438 11.2703 43.003C11.4878 43.0314 11.6702 43.0551 11.696 43.3346C11.7264 43.6592 11.5416 43.7184 11.2796 43.7658C10.9078 43.8321 10.6505 44.05 10.6014 44.4622C10.5476 44.9028 10.8119 45.1231 11.1697 45.2273ZM8.62966 6.61484C7.22631 6.64089 6.04049 7.89166 6.07323 9.31297C6.10832 10.739 7.32455 11.9353 8.73023 11.9211C10.157 11.9093 11.3194 10.7082 11.31 9.25849C11.3007 7.76137 10.1102 6.58878 8.62966 6.61484ZM9.83887 9.3035C9.77806 9.98336 9.31262 10.3316 8.70216 10.4192C8.19228 10.4927 7.46956 9.74885 7.54207 9.23243C7.63328 8.59521 8.00517 8.18066 8.61095 8.14039C9.31496 8.13565 9.895 8.68996 9.83887 9.3035ZM8.39109 0.550542C7.15615 0.517378 6.08259 1.55494 6.0709 2.79623C6.05686 3.97118 7.10235 5.05375 8.27414 5.08218C9.47166 5.11061 10.5733 4.03514 10.5826 2.82939C10.5943 1.62127 9.59329 0.581337 8.39109 0.550542ZM8.33496 3.54716C7.8625 3.54716 7.53973 3.22499 7.56312 2.77728C7.58183 2.4101 7.83443 2.06425 8.33496 2.05477C8.78402 2.0903 9.06469 2.37457 9.06469 2.83887C9.06236 3.27474 8.76531 3.54716 8.33496 3.54716ZM2.34502 2.80096C1.13815 2.81044 0.0949933 3.90012 0.109027 5.13903C0.125399 6.35426 1.12177 7.32787 2.35438 7.3326C3.59166 7.3326 4.63481 6.27609 4.61142 5.03954C4.59037 3.90012 3.47003 2.79386 2.34502 2.80096ZM2.40817 5.84022C1.92168 5.87812 1.64569 5.52516 1.60125 5.10587C1.55213 4.66763 1.88192 4.4189 2.30058 4.37863C2.76134 4.33362 2.97185 4.62736 3.06774 5.07271C2.99991 5.44225 2.85724 5.80232 2.40817 5.84022Z" fill="#FEFEFE"/>
    <path d="M13.8764 13.5199C13.6308 13.3564 13.3759 13.3896 13.1186 13.3896C9.18692 13.3896 5.25523 13.3896 1.32353 13.3896C1.12004 13.3896 0.900185 13.3683 0.71775 13.437C0.416032 13.5554 0.154074 13.7544 0.121329 14.1287C0.0862459 14.5148 0.275697 14.7778 0.626533 14.8465C1.22997 14.9649 1.27675 15.351 1.27675 15.8793C1.25804 20.7899 1.26505 25.6982 1.26505 30.6089C1.26505 35.5195 1.25102 40.3094 1.27207 45.1585C1.28143 47.5178 2.77131 49.0268 5.07981 49.0623C6.50654 49.0837 7.93327 49.0742 9.36 49.0623C10.0336 49.0576 10.6745 48.9415 11.2756 48.5815C12.7678 47.686 13.2543 46.331 13.2496 44.6397C13.2262 35.1168 13.2379 25.594 13.2402 16.0712C13.2402 15.5358 13.0952 15.0004 13.8951 14.773C14.4705 14.6096 14.4074 13.8776 13.8764 13.5199ZM11.1703 45.2271C11.7621 45.3977 11.6732 45.7815 11.4931 46.1936C11.0838 47.1317 10.333 47.5723 9.35533 47.5889C7.92859 47.6126 6.49952 47.6126 5.07279 47.5889C4.04133 47.57 3.12682 46.909 2.8368 46.0373C2.71985 45.682 2.61694 45.3409 3.16424 45.2461C3.54783 45.1821 3.83785 44.9287 3.80744 44.5283C3.77704 44.1398 3.56654 43.7892 3.10343 43.7632C2.87422 43.749 2.72219 43.7206 2.72687 43.4244C2.72921 43.1402 2.79002 43.0028 3.11045 42.998C3.56888 42.9909 3.81212 42.6451 3.80978 42.2448C3.80744 41.8278 3.53379 41.5317 3.07069 41.5412C2.78534 41.5459 2.74324 41.373 2.73155 41.1432C2.72219 40.9371 2.79002 40.8258 3.00754 40.7784C3.43556 40.686 3.80744 40.4586 3.80277 39.9754C3.80043 39.4803 3.4379 39.2789 2.97713 39.2458C2.73389 39.2268 2.73389 39.0302 2.73623 38.8549C2.73623 38.6488 2.72453 38.419 3.03327 38.4261C3.53847 38.438 3.82382 38.1466 3.80744 37.6752C3.79575 37.263 3.5221 36.9622 3.06835 36.9598C2.79236 36.9598 2.73389 36.8272 2.72687 36.5808C2.72219 36.3202 2.80873 36.2231 3.07069 36.1994C3.50572 36.1615 3.77236 35.8464 3.80277 35.4461C3.83785 34.9937 3.5104 34.7639 3.08004 34.7354C2.81809 34.7189 2.73389 34.5886 2.73155 34.3446C2.72921 34.0793 2.77365 33.8874 3.09642 33.8732C3.54549 33.8566 3.82849 33.5771 3.8168 33.1459C3.80744 32.7314 3.53613 32.4329 3.09876 32.3855C2.8672 32.3571 2.71517 32.3168 2.72921 32.0302C2.74324 31.8004 2.77599 31.6322 3.05899 31.6251C3.51742 31.6133 3.77002 31.2935 3.79341 30.8979C3.8168 30.4715 3.52911 30.1872 3.08472 30.1683C2.82043 30.1588 2.73155 30.0498 2.72921 29.7916C2.72687 29.5097 2.80171 29.37 3.11279 29.3392C3.54081 29.2989 3.82615 29.0052 3.81212 28.574C3.79809 28.2021 3.54549 27.925 3.14553 27.8705C2.88124 27.8349 2.72219 27.7473 2.72921 27.4299C2.73623 27.1338 2.921 27.1148 3.12682 27.0745C3.54549 26.9869 3.82148 26.7168 3.80277 26.2857C3.78405 25.8996 3.51274 25.6319 3.11747 25.6082C2.80873 25.5893 2.73623 25.4495 2.72687 25.1676C2.71517 24.8194 2.921 24.8194 3.16658 24.7767C3.54783 24.7128 3.82148 24.4617 3.80277 24.059C3.78639 23.6894 3.57589 23.3838 3.18062 23.3151C2.94205 23.2701 2.73623 23.2725 2.72687 22.929C2.71517 22.5879 2.89761 22.5642 3.14787 22.5263C3.53847 22.4671 3.79809 22.1899 3.80744 21.8085C3.82148 21.3798 3.57823 21.086 3.11045 21.086C2.79236 21.0837 2.72687 20.8942 2.73155 20.6217C2.73856 20.392 2.77131 20.2309 3.06133 20.2238C3.49637 20.2119 3.80277 19.9561 3.80277 19.5202C3.80277 19.108 3.53613 18.7882 3.11513 18.729C2.82744 18.6888 2.71517 18.6058 2.72687 18.2979C2.73623 18.0113 2.87656 17.9781 3.11045 17.9591C3.55484 17.9236 3.83317 17.6204 3.80978 17.2035C3.78639 16.8079 3.51976 16.5781 3.06133 16.4928C2.4041 16.3696 2.84148 15.7774 2.74558 15.4079C2.6567 15.0691 2.87188 14.9531 3.19699 14.9554C5.84931 14.9625 8.50163 14.9602 11.1539 14.9602C11.4954 14.9602 11.7433 15.0952 11.6919 15.4789C11.6451 15.8414 11.9398 16.3838 11.3317 16.4976C10.8967 16.5805 10.623 16.7297 10.6043 17.2082C10.5833 17.6986 10.8803 17.8928 11.2919 17.9568C11.5141 17.9923 11.6825 18.0397 11.6966 18.3145C11.7129 18.5845 11.5656 18.6532 11.3411 18.7148C10.9294 18.8285 10.5762 19.0251 10.602 19.551C10.6277 20.0366 10.9575 20.1764 11.3598 20.2451C11.5983 20.2854 11.7129 20.4465 11.6872 20.6857C11.6615 20.9226 11.5024 21.0387 11.2756 21.0742C10.9037 21.1334 10.6137 21.2708 10.5973 21.7304C10.5786 22.2207 10.878 22.4102 11.2662 22.5263C11.4603 22.5855 11.6849 22.5926 11.6896 22.8769C11.6942 23.1849 11.4978 23.2678 11.2405 23.3104C10.8499 23.372 10.63 23.6041 10.5996 24.0211C10.5669 24.5209 10.9013 24.682 11.2779 24.7886C11.4791 24.8454 11.6872 24.8596 11.6942 25.1415C11.7036 25.4329 11.5469 25.5348 11.2802 25.6035C10.9084 25.6982 10.5575 25.8593 10.5949 26.3662C10.6277 26.7974 10.892 26.9774 11.2639 27.0674C11.4674 27.1148 11.6755 27.174 11.6849 27.4393C11.6966 27.7568 11.451 27.8065 11.2218 27.8657C10.8429 27.9605 10.616 28.1713 10.5949 28.6001C10.5716 29.0668 10.899 29.2113 11.2218 29.3344C11.4416 29.4197 11.6825 29.4292 11.6966 29.7466C11.7106 30.1351 11.4182 30.1067 11.1703 30.1896C10.8686 30.2915 10.5833 30.4383 10.5996 30.8624C10.6183 31.2793 10.8148 31.5233 11.2031 31.6038C11.444 31.6536 11.6708 31.6915 11.6872 32.0065C11.7059 32.35 11.4299 32.3382 11.2171 32.4092C10.8616 32.5253 10.5996 32.7172 10.5926 33.153C10.5856 33.6055 10.8569 33.7761 11.2264 33.8661C11.465 33.9229 11.6849 34.0035 11.6872 34.3043C11.6896 34.6052 11.4837 34.681 11.2358 34.7426C10.8803 34.8302 10.5856 34.9842 10.5949 35.4437C10.6043 35.8915 10.906 36.0525 11.2335 36.1828C11.4416 36.2657 11.7083 36.2278 11.6989 36.5832C11.6919 36.9219 11.465 36.9243 11.2288 36.974C10.8967 37.0427 10.6394 37.2109 10.6066 37.6065C10.5762 38.0116 10.6862 38.3077 11.1165 38.3977C11.4978 38.6701 11.9538 38.9354 11.0978 39.1937C10.8873 39.2552 10.6581 39.3642 10.6441 39.6556C10.4523 40.2478 10.7914 40.5344 11.2569 40.7453C11.458 40.8353 11.7433 40.84 11.6802 41.1906C11.6358 41.4322 11.4907 41.5317 11.2569 41.5507C10.8546 41.5862 10.6137 41.7947 10.6043 42.2305C10.5926 42.6996 10.8382 42.9436 11.2709 43.0028C11.4884 43.0312 11.6708 43.0549 11.6966 43.3344C11.727 43.659 11.5422 43.7182 11.2802 43.7656C10.9084 43.8319 10.6511 44.0498 10.602 44.462C10.5482 44.9026 10.8125 45.1229 11.1703 45.2271Z" fill="#18466F"/>
    <path d="M41.6273 8.62813C41.9571 9.19902 42.0039 9.91442 41.8214 10.663C41.1455 10.329 40.528 10.1276 40.2403 9.23693C39.9269 8.26095 38.9446 7.68058 38.299 6.88701C37.9693 6.47957 37.5716 6.12897 37.2068 5.74996C36.4256 4.94217 35.2982 4.85453 34.4936 5.63862C32.108 7.96485 29.7574 10.3242 27.3881 12.6647C26.3262 13.7141 25.2854 14.7848 24.1697 15.7679C23.7908 16.1043 23.8797 16.1824 24.158 16.4738C25.7742 18.1652 27.3764 19.8684 28.9598 21.5929C29.3293 21.9956 29.4837 21.6972 29.7106 21.4721C30.9151 20.2806 32.115 19.0796 33.3406 17.9117C33.516 17.7459 33.7008 17.1229 34.096 17.7127C34.3673 18.1178 35.0035 18.4376 34.3276 19.063C33.1722 20.1313 32.0939 21.285 30.9198 22.3296C30.3281 22.8555 30.3608 23.2677 30.8777 23.7344C31.3782 24.1892 31.3946 24.6132 30.8894 25.0609C30.6602 25.2244 30.424 25.1723 30.1854 25.087C29.465 24.3219 28.7259 23.5757 28.0336 22.7868C27.5494 22.2325 27.2009 22.0904 26.6232 22.7442C25.6175 23.8813 24.5042 24.9188 23.433 25.9943C22.5676 26.8637 21.5338 26.8944 20.666 26.0417C20.1421 25.53 19.6463 24.9875 19.1762 24.4261C18.5984 23.7391 18.7014 22.7868 19.4194 22.0454C20.5772 20.8491 21.7349 19.6505 22.9231 18.4826C23.3184 18.0941 23.3722 17.8596 22.9231 17.4498C22.1957 16.7794 21.5525 16.019 20.8648 15.3036C20.4859 14.908 20.1959 14.4745 20.7105 14.0197C21.1479 13.6359 21.5712 13.842 21.915 14.2494C21.9899 14.3371 22.0858 14.4105 22.1536 14.5053C22.5442 15.0572 22.8857 15.0122 23.3581 14.5408C26.5601 11.3405 29.7924 8.17094 33.0038 4.98008C34.1709 3.81933 35.4549 3.20106 37.0922 3.87618C37.4196 4.01358 37.6792 3.95673 37.9505 3.67957C38.7434 2.86468 39.5597 2.07585 40.3853 1.29412C41.5501 0.19023 42.9886 0.244714 44.0878 1.4173C45.1778 2.57568 45.1684 4.18177 44.0504 5.2904C43.3464 5.98921 42.6237 6.66197 41.915 7.35368C41.5525 7.70901 41.2718 8.01459 41.625 8.62813H41.6273Z" fill="#18466F"/>
    <path d="M43.3391 47.4182C43.0585 48.5269 42.1744 49.0646 40.7804 49.067C33.7613 49.067 26.7423 49.0693 19.7232 49.0646C18.5491 49.0622 17.6182 48.3918 17.3375 47.3803C16.989 46.1367 17.3867 44.8528 18.3035 44.244C18.8555 43.9407 19.4472 43.8744 20.067 43.8815C21.7511 43.9005 23.4397 43.936 25.1214 43.8673C25.9307 43.8341 26.5341 43.9905 26.8896 44.7651C27.0253 44.867 27.2685 44.9309 27.2194 45.1228C27.1376 45.4308 26.8358 45.3194 26.623 45.3194C24.4385 45.3289 22.2539 45.3242 20.067 45.3265C18.9748 45.3265 18.8181 45.4687 18.8181 46.4162C18.8181 47.4064 19.0122 47.5935 20.0998 47.5935C26.9481 47.5959 33.7964 47.5959 40.6447 47.5935C41.7206 47.5935 41.9615 47.3259 41.9428 46.312C41.9288 45.5942 41.5967 45.3147 40.9114 45.3194C39.2788 45.336 37.6486 45.3336 36.016 45.3194C35.7096 45.3171 35.2629 45.4876 35.1249 45.1915C34.9869 44.893 35.3518 44.5898 35.5295 44.3055C35.588 44.2084 35.6956 44.1421 35.7821 44.0616C35.9435 43.9194 36.1306 43.827 36.3435 43.7939C36.3482 43.7939 36.3505 43.7915 36.3552 43.7915H36.4768C36.4417 43.8555 36.4136 43.9265 36.3949 44.0023C38.3479 43.8531 40.3032 43.8033 42.2539 44.0687C43.545 44.7035 43.6011 46.3688 43.3391 47.4182Z" fill="#18466F"/>
    <path d="M47.4393 31.5448C46.1132 36.8108 42.9744 40.6342 38.1281 42.9746C37.6674 43.1973 37.23 43.5289 36.6827 43.5502C36.5985 43.6189 36.5283 43.6995 36.4769 43.7919C36.4418 43.8558 36.4137 43.9269 36.395 44.0027C36.1892 44.0217 35.9857 44.043 35.7822 44.0619C35.9343 43.5313 36.1097 43.003 36.2313 42.4653C36.3202 42.0744 36.6266 41.9631 36.9096 41.8447C40.998 40.1509 43.8351 37.1685 45.4209 33.0325C46.5739 30.0264 46.7353 26.89 45.9471 23.73C45.4138 21.598 44.5835 19.6176 43.1077 17.9665C42.9276 17.7652 42.9019 17.578 43.0656 17.4477C43.4375 17.1516 43.4024 16.6305 43.7509 16.2988C45.2104 17.8173 46.181 19.6508 46.8897 21.6146C48.0638 24.8552 48.279 28.2071 47.4393 31.5448Z" fill="#18466F"/>
    <path d="M26.8896 44.7652C26.2698 43.8366 25.3178 44.0759 24.4454 44.0688C23.0561 44.0546 21.6668 44.0782 20.2775 44.0593C19.6086 44.0498 18.9513 44.0901 18.3035 44.2441C18.6964 43.8295 19.1922 43.749 19.7325 43.7513C21.6832 43.7608 23.6338 43.7537 25.6079 43.6921C24.394 43.0099 23.1193 42.4745 21.9662 41.6928C19.5969 40.0867 17.7515 38.0163 16.4347 35.4674C16.1751 34.9652 15.9154 34.6336 15.3214 34.7236C14.6337 34.8278 14.6782 34.3635 14.6688 33.8921C14.6594 33.4136 14.7203 33.1246 15.319 33.1317C18.2333 33.1578 21.1476 33.1483 24.0642 33.1436C24.5787 33.1436 25.0489 33.2667 25.0769 33.859C25.1073 34.5033 24.6185 34.6999 24.0782 34.7165C23.421 34.7402 22.7591 34.7236 21.9451 34.7236C23.1193 36.3652 24.5437 37.3696 26.1294 38.1821C26.3984 38.3172 26.9574 38.3574 26.5949 38.8644C26.3446 39.2197 26.3423 40.037 25.4816 39.575C23.7461 38.6464 22.1135 37.5733 20.9721 35.9365C20.3126 34.9913 19.5828 34.5199 18.4555 34.7212C18.2614 34.7568 18.0602 34.7544 17.7468 34.7757C18.7221 36.5879 19.8939 38.1182 21.3978 39.376C22.5626 40.352 23.8163 41.2001 25.2313 41.7615C25.7084 41.951 26.0172 42.2163 26.0452 42.7612C26.0873 43.531 26.6697 44.0711 26.8896 44.7652Z" fill="#18466F"/>
    <path d="M43.6832 29.6825C42.8553 34.0886 40.5304 37.3553 36.573 39.428C35.7473 39.8615 35.8175 39.0893 35.5626 38.7979C35.186 38.3691 35.5953 38.2223 35.9064 38.0564C38.8253 36.4906 40.8812 34.181 41.8542 30.9427C41.9033 30.7746 41.9127 30.5945 41.9407 30.4216C42.3875 28.626 42.3477 26.8328 41.9337 25.0395C41.632 23.5187 40.9584 22.1827 40.0696 20.9319C39.9153 20.7116 39.3352 20.38 39.8334 20.1241C40.238 19.9157 40.8017 19.34 41.335 20.0768C42.5746 21.7847 43.2973 23.7035 43.6809 25.7715C44.013 27.0744 44.0458 28.3773 43.6832 29.6825Z" fill="#18466F"/>
    <path d="M42.3313 14.9389C42.343 17.0354 40.6356 18.7196 38.5212 18.7007C36.4911 18.6817 34.7767 16.9288 34.8141 14.9105C34.8538 12.8685 36.5683 11.1843 38.5961 11.1961C40.6356 11.2056 42.3196 12.8922 42.3313 14.9389Z" fill="#18466F"/>
    <path d="M34.5917 40.1484C33.8619 38.5494 32.475 37.6279 30.9102 37.7013C29.4835 37.77 28.0521 38.881 27.589 40.281C26.9739 42.143 27.9211 44.2986 29.6472 44.9667C31.7008 45.7626 33.6608 44.9193 34.601 42.8323C34.8115 41.9369 34.8209 41.0414 34.5917 40.1484ZM31.1254 43.7254C29.8951 43.7348 28.873 42.7707 28.8333 41.5626C28.7912 40.3568 29.8577 39.2719 31.095 39.253C32.3183 39.2364 33.3146 40.21 33.338 41.4442C33.3637 42.7707 32.4446 43.7183 31.1254 43.7254Z" fill="#18466F"/>
    <path d="M8.62984 6.61468C7.2265 6.64074 6.04067 7.8915 6.07342 9.31282C6.1085 10.7389 7.32473 11.9352 8.73041 11.9209C10.1571 11.9091 11.3196 10.7081 11.3102 9.25834C11.3009 7.76121 10.1104 6.58863 8.62984 6.61468ZM9.83905 9.30335C9.77824 9.98321 9.3128 10.3314 8.70235 10.4191C8.19246 10.4925 7.46974 9.74869 7.54225 9.23228C7.63347 8.59506 8.00535 8.1805 8.61113 8.14023C9.31514 8.1355 9.89519 8.68981 9.83905 9.30335Z" fill="#18466F"/>
    <path d="M2.34551 2.80082C1.13863 2.81029 0.0954815 3.89997 0.109515 5.13889C0.125887 6.35411 1.12226 7.32772 2.35486 7.33245C3.59214 7.33245 4.6353 6.27594 4.61191 5.03939C4.59086 3.89997 3.47052 2.79371 2.34551 2.80082ZM2.40866 5.84007C1.92217 5.87797 1.64618 5.52501 1.60174 5.10572C1.55262 4.66748 1.8824 4.41875 2.30107 4.37848C2.76183 4.33347 2.97233 4.62721 3.06823 5.07256C3.0004 5.4421 2.85773 5.80217 2.40866 5.84007Z" fill="#18466F"/>
    <path d="M8.39113 0.550578C7.15619 0.517414 6.08263 1.55498 6.07094 2.79626C6.05691 3.97122 7.1024 5.05379 8.27419 5.08222C9.47171 5.11064 10.5733 4.03518 10.5827 2.82943C10.5944 1.62131 9.59333 0.581374 8.39113 0.550578ZM8.335 3.54719C7.86254 3.54719 7.53977 3.22503 7.56316 2.77731C7.58187 2.41014 7.83447 2.06428 8.335 2.05481C8.78407 2.09034 9.06474 2.3746 9.06474 2.8389C9.0624 3.27477 8.76536 3.54719 8.335 3.54719Z" fill="#18466F"/>
    <path d="M33.2097 10.7957C31.9911 12.2099 30.665 13.5199 29.285 14.7706C29.1845 14.863 29.0207 14.882 28.9085 14.927C28.574 14.882 28.3237 14.7399 28.1857 14.4532C28.0594 14.1903 28.1132 13.9415 28.3214 13.7283C29.5914 12.4421 30.8521 11.1463 32.1338 9.87421C32.4542 9.55441 32.8261 9.63732 33.1466 9.92632C33.4389 10.1893 33.4272 10.5446 33.2097 10.7957Z" fill="#18466F"/>
    <path d="M41.9406 30.4216C42.3873 28.626 42.3476 26.8328 41.9336 25.0396C42.53 26.8328 42.6025 28.626 41.9406 30.4216Z" fill="#18466F"/>
    <path d="M36.6826 43.5497C36.5984 43.6184 36.5282 43.699 36.4768 43.7913C36.4417 43.8553 36.4136 43.9264 36.3949 44.0022C36.3692 43.9264 36.3505 43.8553 36.3434 43.7937C36.3271 43.6255 36.4019 43.5189 36.6826 43.5497Z" fill="#18466F"/>
    <path d="M43.6835 29.6825C43.8028 28.3772 43.8051 27.0744 43.6812 25.7715C44.0133 27.0744 44.046 28.3772 43.6835 29.6825Z" fill="#18466F"/>
    <path d="M30.8896 25.0608C30.6674 25.454 30.4311 25.3995 30.1855 25.0868C30.4194 25.0774 30.6557 25.0679 30.8896 25.0608Z" fill="#18466F"/>
    <path d="M11.7129 38.907C11.6989 39.26 11.3481 39.2126 11.1329 39.3192C10.9504 39.4068 10.7633 39.4779 10.644 39.6556C10.6581 39.3642 10.8873 39.2552 11.0978 39.1936C11.9538 38.9354 11.4977 38.6701 11.1165 38.3977C11.3574 38.5185 11.7293 38.509 11.7129 38.907Z" fill="#FEFEFE"/>
    <path d="M11.2755 39.4138C11.058 39.4541 10.8545 39.5725 10.644 39.6554C10.6581 39.3641 10.8873 39.2551 11.0978 39.1935C11.9538 38.9353 11.4977 38.67 11.1165 38.3976C11.4393 38.3455 11.7644 38.291 11.8112 38.7742C11.8486 39.1746 11.6451 39.3428 11.2755 39.4138Z" fill="#7C7C7C"/>
    <path d="M22.032 25.0988C21.7046 24.8288 21.3771 24.599 21.0988 24.3218C20.1095 23.334 20.1328 23.3459 21.1573 22.377C22.1326 21.4579 23.0728 20.4985 24.0248 19.5557C24.1066 19.4751 24.1675 19.2975 24.2446 19.2927C25.1591 19.2406 25.2901 20.2356 25.9029 20.6027C26.1228 20.7354 26.3052 20.9273 25.9988 21.2328C24.7779 22.4457 23.5827 23.6846 22.3688 24.907C22.2542 25.023 22.0788 25.0751 22.032 25.1012V25.0988Z" fill="#FDFDFD"/>
    <path d="M43.4329 3.40003C43.461 3.70088 43.2996 3.91644 43.1148 4.10358C42.3383 4.89478 41.5571 5.68362 40.7713 6.46534C40.4321 6.80409 40.1164 6.96517 39.8474 6.36111C39.6205 5.85181 38.7668 5.62203 38.9446 5.01797C39.0849 4.54656 39.6673 4.21018 40.0556 3.81458C40.5046 3.35502 40.9607 2.90257 41.4051 2.43827C41.7442 2.08531 42.1278 1.93607 42.5863 2.16111C43.0938 2.40985 43.3674 2.83861 43.4353 3.4024L43.4329 3.40003Z" fill="#FCFCFC"/>
    <path d="M40.8181 15.0195C40.7783 16.2726 39.7258 17.2747 38.4932 17.2296C37.284 17.1846 36.3578 16.1613 36.3859 14.8987C36.4139 13.6408 37.4033 12.653 38.6078 12.6767C39.8287 12.7004 40.8555 13.7901 40.8181 15.0219V15.0195Z" fill="#FDFDFD"/>
    </g>
    <defs>
    <clipPath id="clip0_174_99">
    <rect width="47.8376" height="48.5736" fill="white" transform="translate(0.109375 0.500732)"/>
    </clipPath>
    </defs>
</svg>