<svg width="50" height="50" viewBox="0 0 50 50" fill="none" xmlns="http://www.w3.org/2000/svg">
    <g clip-path="url(#clip0_174_165)">
    <path d="M12.7464 22.4633C12.7464 22.5421 12.7514 22.6197 12.7464 22.6972C12.7139 23.2101 12.3714 23.5528 11.8863 23.5604C11.3687 23.5691 10.9874 23.2301 10.9862 22.696C10.9787 19.4661 10.9887 16.2362 10.9824 13.0075C10.9824 12.7311 11.0924 12.5522 11.3 12.4071C11.5863 12.252 11.8876 12.2032 12.2051 12.2845C12.6089 12.5197 12.7552 12.8674 12.7539 13.3365C12.7402 16.3788 12.7464 19.421 12.7464 22.4633Z" fill="#18466F"/>
    <path d="M21.2626 42.8483C20.8887 42.8883 20.8312 42.7357 20.835 42.4017C20.8512 40.5266 20.8575 38.6502 20.8387 36.7751C20.8187 34.8686 20.0774 33.275 18.7222 31.939C17.1094 30.349 15.5117 28.7416 13.9289 27.1229C13.0463 26.2197 12.1487 25.3703 10.8535 25.0964C9.6658 24.8462 8.53313 24.9888 7.45922 25.5342C7.35045 25.4004 7.39296 25.2728 7.39296 25.1552C7.38921 22.8735 7.39796 20.5918 7.38796 18.3101C7.38046 16.45 5.98274 15.0377 4.18372 15.0477C2.33344 15.0589 0.954485 16.4612 0.954485 18.3313C0.954485 21.8002 0.978238 25.2703 0.943233 28.7391C0.928231 30.2615 1.37955 31.5762 2.29469 32.7783C4.26248 35.3628 6.19778 37.9697 8.15057 40.5654C8.52313 41.0607 8.77817 41.6074 8.90194 42.2116C9.0307 42.8396 9.02195 42.8433 8.40061 42.8446C7.09166 42.8446 6.41656 43.5176 6.40781 44.8348C6.40406 45.5528 6.40656 46.2721 6.40781 46.9914C6.40906 48.1785 6.78161 48.7002 7.89178 49.0742C12.6725 49.0717 17.452 49.0692 22.2314 49.0667C23.3116 48.6401 23.6329 48.1698 23.6329 47.0164C23.6329 46.4235 23.5929 45.8255 23.6417 45.2363C23.7717 43.6652 23.0603 42.6594 21.2626 42.8483ZM3.54238 31.4699C2.98854 30.7331 2.71225 29.9187 2.716 28.9893C2.72725 25.4591 2.71975 21.9278 2.721 18.3977C2.721 17.4607 3.31609 16.8152 4.17997 16.809C5.02385 16.8027 5.62769 17.4682 5.62894 18.4202C5.63144 21.5287 5.63769 24.6373 5.62394 27.7458C5.62144 28.5102 5.86648 29.1331 6.41156 29.6735C8.43061 31.6738 10.4322 33.6915 12.445 35.6993C12.9726 36.2259 13.6639 36.1608 13.9677 35.5642C14.1965 35.1151 14.0265 34.7561 13.6977 34.4308C12.51 33.2562 11.3248 32.0791 10.1409 30.8994C9.322 30.0838 8.50437 29.267 7.6905 28.4464C7.27794 28.0311 7.29044 27.8322 7.73426 27.4556C8.92694 26.4449 10.7635 26.4987 11.8774 27.6032C13.8177 29.5284 15.753 31.4574 17.6708 33.4051C18.4809 34.2282 18.9685 35.2239 19.0397 36.3985C19.0397 36.4298 19.0435 36.4623 19.0447 36.4936C19.141 37.0015 19.0835 37.5156 19.0847 38.026C19.086 39.5484 19.0685 41.0695 19.0597 42.5919V42.6832C19.0522 42.7145 19.0447 42.7457 19.036 42.777C18.8934 42.9221 18.7134 42.8408 18.5546 42.8421C16.1393 42.8483 13.7252 42.8458 11.3098 42.8458C10.7222 42.8458 10.716 42.8458 10.7085 42.2366V42.2153C10.5172 40.9406 9.88208 39.8899 9.11197 38.8816C7.23543 36.426 5.39891 33.9404 3.54238 31.4699ZM21.5101 47.3016C20.0274 47.2879 18.5459 47.2954 17.0632 47.2954C14.3015 47.2954 11.5398 47.2954 8.77817 47.2941C8.60814 47.2941 8.43686 47.2804 8.26684 47.2729C8.15307 47.2591 8.17308 47.1703 8.17308 47.0977C8.17182 46.3497 8.17808 45.6016 8.16807 44.8523C8.16557 44.6446 8.24059 44.5884 8.43812 44.5884C12.8638 44.5934 17.2895 44.5921 21.7151 44.5959C21.7539 44.5959 21.7914 44.6334 21.8301 44.6534C21.8401 44.6734 21.8514 44.6922 21.8576 44.7122C21.8601 44.7222 21.8526 44.7347 21.8501 44.7472C21.8501 44.7785 21.8489 44.8098 21.8489 44.841C21.8551 45.5428 21.8464 46.2458 21.8764 46.9464C21.8889 47.2478 21.7889 47.3041 21.5101 47.3016Z" fill="#18466F"/>
    <path d="M35.2082 17.6833C34.3169 13.4477 29.0698 11.4112 25.5418 13.9306C25.2967 14.1057 25.1592 14.1082 24.9179 13.9281C23.909 13.1787 22.7626 12.8247 21.1274 12.8235C19.1308 12.9136 17.1868 13.848 15.9591 15.9195C14.6101 18.1937 14.9139 20.4729 16.3816 22.5657C18.5407 25.6443 21.6262 27.5394 24.9879 29.0443C25.213 29.1444 25.413 29.0718 25.618 28.9867C26.6607 28.5614 27.6483 28.026 28.6047 27.4356C30.6913 26.1484 32.6253 24.6823 34.0481 22.642C35.0895 21.1459 35.5908 19.5047 35.2082 17.6833ZM32.3991 21.9152C31.2764 23.3901 29.8274 24.4984 28.2997 25.5129C27.4158 26.0996 26.4944 26.625 25.543 27.0991C25.3555 27.1929 25.1992 27.2417 24.9792 27.1304C22.7139 25.9758 20.5823 24.6323 18.807 22.7859C17.8981 21.8414 17.1455 20.7957 16.9392 19.4497C16.9305 19.3884 16.9117 19.3271 16.9092 19.2658C16.9055 19.1407 16.908 19.0156 16.908 18.8905C16.913 15.807 20.321 13.6629 23.1427 14.9676C23.6552 15.2053 24.1228 15.5117 24.5554 15.8758C25.0129 16.2598 25.323 16.2748 25.8243 15.9483C25.9943 15.8382 26.1431 15.6981 26.3056 15.5768C27.8009 14.4522 29.4161 14.2408 31.0951 15.0677C32.7441 15.8795 33.5767 17.2568 33.5505 19.1044C33.5355 20.1802 33.0317 21.0834 32.3991 21.9152Z" fill="#18466F"/>
    <path d="M39.4852 22.6095C39.4852 23.0536 39.3027 23.3851 38.8926 23.5165C38.5026 23.6428 38.12 23.5803 37.89 23.1662C37.82 23.1274 37.7875 23.0686 37.8 22.9886C37.6962 22.8522 37.7175 22.6921 37.7175 22.537C37.7162 19.4459 37.7162 16.3549 37.7175 13.2639C37.7175 13.125 37.6875 12.9799 37.79 12.8598C37.8525 12.5458 38.04 12.3594 38.3551 12.3006C38.4713 12.2731 38.5876 12.2443 38.7039 12.2156C38.7314 12.2343 38.7576 12.2531 38.7839 12.2719C38.7976 12.2806 38.8101 12.2894 38.8226 12.2981C38.8701 12.2919 38.9139 12.2931 38.9514 12.3106C38.9827 12.3232 39.0089 12.3457 39.0314 12.382C39.2077 12.407 39.2627 12.5821 39.3865 12.6709C39.5002 12.9499 39.4827 13.2438 39.4827 13.5353C39.4827 16.5601 39.4802 19.5848 39.4852 22.6095Z" fill="#18466F"/>
    <path d="M41.5816 11.1911C40.1014 10.2041 38.6262 9.20963 37.1372 8.23641C36.8821 8.07003 36.7946 7.89615 36.7971 7.59468C36.8109 5.62572 36.8046 3.65675 36.8034 1.68779C36.8034 0.865931 36.5221 0.580719 35.7157 0.579468H32.4352C31.4926 0.579468 31.2388 0.833407 31.2388 1.7716C31.2375 2.58721 31.2388 3.40407 31.2388 4.29223C29.421 3.08008 27.6758 1.93297 25.9517 0.755849C25.4367 0.404338 25.0066 0.423102 24.499 0.764605C21.3786 2.86492 18.2456 4.94646 15.1164 7.03426C13.0135 8.43781 10.9095 9.83885 8.80791 11.2436C8.30659 11.5789 8.17157 12.0793 8.45036 12.5246C8.72415 12.9624 9.25673 13.0462 9.76556 12.7335C9.91058 12.6447 10.0569 12.5584 10.2031 12.4696C10.3456 12.3194 10.5169 12.2106 10.7057 12.1268C10.7657 12.088 10.8245 12.0505 10.8832 12.0117C11.1995 11.8003 11.5146 11.5889 11.8309 11.3775C11.8646 11.345 11.8946 11.3074 11.9334 11.2824C16.2778 8.38402 20.6259 5.48937 24.9653 2.58346C25.1966 2.42834 25.3342 2.47588 25.5354 2.61098C27.8783 4.1834 30.2299 5.74455 32.5752 7.31322C34.5968 8.66422 36.6134 10.0227 38.6324 11.3775C38.9587 11.5614 39.285 11.7453 39.5501 12.018C39.6188 12.0542 39.6888 12.0905 39.7576 12.1268C39.9464 12.2094 40.1164 12.3207 40.2602 12.4696C40.3802 12.5396 40.5039 12.6047 40.6202 12.6797C41.1853 13.0437 41.7241 12.9849 42.0129 12.5246C42.3105 12.0492 42.1579 11.5764 41.5816 11.1911ZM35.0544 6.83912C34.368 6.38003 33.7667 5.97222 33.1591 5.57568C33.0353 5.49437 33.0016 5.40305 33.0016 5.2667C33.0053 4.37979 33.0091 3.49163 32.9991 2.60347C32.9966 2.39582 33.0641 2.33827 33.2654 2.34328C33.7629 2.35579 34.2618 2.35579 34.7593 2.34328C34.9744 2.33827 35.0606 2.39081 35.0594 2.62724C35.0494 3.99451 35.0544 5.36302 35.0544 6.83912Z" fill="#18466F"/>
    <path d="M39.3612 42.7321C39.3937 42.7333 39.4162 42.7333 39.4212 42.7321H39.3612ZM39.3612 42.7321C39.3937 42.7333 39.4162 42.7333 39.4212 42.7321H39.3612ZM39.3612 42.7321C39.3937 42.7333 39.4162 42.7333 39.4212 42.7321H39.3612ZM39.3612 42.7321C39.3937 42.7333 39.4162 42.7333 39.4212 42.7321H39.3612ZM39.3612 42.7321C39.3937 42.7333 39.4162 42.7333 39.4212 42.7321H39.3612ZM39.3612 42.7321C39.3937 42.7333 39.4162 42.7333 39.4212 42.7321H39.3612ZM39.3612 42.7321C39.3937 42.7333 39.4162 42.7333 39.4212 42.7321H39.3612ZM39.3612 42.7321C39.3937 42.7333 39.4162 42.7333 39.4212 42.7321H39.3612ZM39.3612 42.7321C39.3937 42.7333 39.4162 42.7333 39.4212 42.7321H39.3612ZM39.3612 42.7321C39.3937 42.7333 39.4162 42.7333 39.4212 42.7321H39.3612ZM39.3612 42.7321C39.3937 42.7333 39.4162 42.7333 39.4212 42.7321H39.3612ZM39.3612 42.7321C39.3937 42.7333 39.4162 42.7333 39.4212 42.7321H39.3612ZM39.3612 42.7321C39.3937 42.7333 39.4162 42.7333 39.4212 42.7321H39.3612ZM39.3612 42.7321C39.3937 42.7333 39.4162 42.7333 39.4212 42.7321H39.3612ZM39.3612 42.7321C39.3937 42.7333 39.4162 42.7333 39.4212 42.7321H39.3612ZM39.3612 42.7321C39.3937 42.7333 39.4162 42.7333 39.4212 42.7321H39.3612ZM39.3612 42.7321C39.3937 42.7333 39.4162 42.7333 39.4212 42.7321H39.3612ZM39.3612 42.7321C39.3937 42.7333 39.4162 42.7333 39.4212 42.7321H39.3612ZM39.3612 42.7321C39.3937 42.7333 39.4162 42.7333 39.4212 42.7321H39.3612ZM39.3612 42.7321C39.3937 42.7333 39.4162 42.7333 39.4212 42.7321H39.3612ZM39.3612 42.7321C39.3937 42.7333 39.4162 42.7333 39.4212 42.7321H39.3612ZM39.3612 42.7321C39.3937 42.7333 39.4162 42.7333 39.4212 42.7321H39.3612ZM39.3612 42.7321C39.3937 42.7333 39.4162 42.7333 39.4212 42.7321H39.3612ZM39.3612 42.7321C39.3937 42.7333 39.4162 42.7333 39.4212 42.7321H39.3612ZM39.3612 42.7321C39.3937 42.7333 39.4162 42.7333 39.4212 42.7321H39.3612ZM39.3612 42.7321C39.3937 42.7333 39.4162 42.7333 39.4212 42.7321H39.3612ZM42.3079 40.573C44.2769 37.9523 46.2335 35.3228 48.215 32.7121C49.0877 31.5625 49.5465 30.3028 49.5152 28.8493C49.484 27.3344 49.509 25.8183 49.509 24.3034C49.509 22.2256 49.524 20.149 49.504 18.0712C49.4965 17.1656 49.1002 16.4038 48.4113 15.8271C47.3712 14.9589 46.1872 14.7588 44.9583 15.3342C43.7381 15.9046 43.0905 16.9216 43.0793 18.2789C43.058 20.5744 43.0743 22.8711 43.0705 25.1678C43.0705 25.3617 43.153 25.7019 42.763 25.4054C42.6555 25.3554 42.5479 25.3041 42.4404 25.2541C42.3792 25.2428 42.3167 25.2378 42.2566 25.2203C40.3201 24.6636 38.6248 25.0539 37.1884 26.4988C35.3481 28.3489 33.4991 30.1903 31.655 32.0354C30.3086 33.3814 29.6222 35.0038 29.621 36.9115C29.6197 38.584 29.621 40.2565 29.621 41.929C29.621 42.5369 29.3109 42.8422 28.6908 42.8447C27.5394 42.8484 26.8356 43.5564 26.8318 44.7186C26.8293 45.4841 26.8318 46.2497 26.8306 47.0153C26.8306 48.1674 27.1531 48.6402 28.232 49.0668C33.0115 49.0693 37.791 49.0718 42.5717 49.0743C43.5918 48.7415 44.0369 48.2024 44.0532 47.2304C44.0682 46.371 44.0719 45.5116 44.0519 44.6523C44.0282 43.5439 43.3068 42.8497 42.2129 42.8447C42.0879 42.8434 41.9616 42.8334 41.8378 42.8472C41.5653 42.8759 41.4853 42.7759 41.5215 42.4994C41.6153 41.7851 41.8778 41.1471 42.3079 40.573ZM41.8378 44.5834C42.1991 44.5822 42.3204 44.6623 42.3004 45.04C42.2666 45.678 42.2967 46.3185 42.2866 46.9577C42.2841 47.0615 42.3779 47.2117 42.1966 47.2729C41.9954 47.2804 41.7928 47.2942 41.5915 47.2942C37.4097 47.2955 33.229 47.2905 29.0484 47.303C28.6946 47.3042 28.5646 47.2329 28.5858 46.8539C28.6246 46.1846 28.6083 45.5129 28.6146 44.8424C28.6146 44.8099 28.6146 44.7786 28.6133 44.7473C28.6208 44.716 28.6271 44.6848 28.6333 44.6535C28.7484 44.5297 28.8971 44.5947 29.0284 44.5947C33.2978 44.591 37.5684 44.596 41.8378 44.5834ZM41.3253 38.9192C40.5626 39.915 39.95 40.9595 39.7563 42.2154C39.7563 42.238 39.7563 42.2592 39.755 42.2792C39.7475 42.8459 39.7275 42.8459 39.1524 42.8459C36.7383 42.8459 34.3242 42.8472 31.9101 42.8409C31.7513 42.8409 31.5713 42.921 31.4275 42.7771C31.4163 42.7583 31.4013 42.7396 31.3925 42.7196C31.39 42.7096 31.4 42.6958 31.4038 42.6833C31.4038 42.6533 31.405 42.6232 31.405 42.5932C31.36 40.5905 31.3487 38.5877 31.41 36.5863C31.415 36.5237 31.42 36.4612 31.425 36.3986C31.495 35.2215 31.9901 34.2245 32.7977 33.4014C34.7255 31.4387 36.6708 29.496 38.6286 27.5646C39.7313 26.4762 41.5953 26.4637 42.7755 27.4932C43.1668 27.8348 43.178 28.0424 42.8005 28.4202C40.9314 30.2853 39.0599 32.1467 37.1896 34.0106C37.0021 34.1982 36.8058 34.3796 36.6345 34.5823C36.297 34.9838 36.3232 35.4417 36.6846 35.7957C37.0421 36.1459 37.5209 36.1647 37.8985 35.8132C38.2873 35.4517 38.6548 35.0664 39.0299 34.6911C40.7089 33.0111 42.3804 31.3223 44.0707 29.6549C44.5945 29.137 44.837 28.539 44.8358 27.8122C44.8295 24.6699 44.832 21.5288 44.8345 18.3865C44.8345 17.6847 45.1996 17.1155 45.7697 16.8954C46.3348 16.6765 46.9924 16.8553 47.4262 17.3432C47.6425 17.5884 47.745 17.8698 47.745 18.1988C47.7425 21.8878 47.7475 25.5768 47.74 29.2658C47.74 30.1102 47.3999 30.8382 46.8998 31.505C45.0421 33.9756 43.203 36.4637 41.3253 38.9192ZM39.4212 42.7321H39.3612C39.3937 42.7333 39.4162 42.7333 39.4212 42.7321ZM39.3612 42.7321C39.3937 42.7333 39.4162 42.7333 39.4212 42.7321H39.3612ZM39.3612 42.7321C39.3937 42.7333 39.4162 42.7333 39.4212 42.7321H39.3612ZM39.3612 42.7321C39.3937 42.7333 39.4162 42.7333 39.4212 42.7321H39.3612ZM39.3612 42.7321C39.3937 42.7333 39.4162 42.7333 39.4212 42.7321H39.3612ZM39.3612 42.7321C39.3937 42.7333 39.4162 42.7333 39.4212 42.7321H39.3612ZM39.3612 42.7321C39.3937 42.7333 39.4162 42.7333 39.4212 42.7321H39.3612ZM39.3612 42.7321C39.3937 42.7333 39.4162 42.7333 39.4212 42.7321H39.3612ZM39.3612 42.7321C39.3937 42.7333 39.4162 42.7333 39.4212 42.7321H39.3612ZM39.3612 42.7321C39.3937 42.7333 39.4162 42.7333 39.4212 42.7321H39.3612ZM39.3612 42.7321C39.3937 42.7333 39.4162 42.7333 39.4212 42.7321H39.3612ZM39.3612 42.7321C39.3937 42.7333 39.4162 42.7333 39.4212 42.7321H39.3612ZM39.3612 42.7321C39.3937 42.7333 39.4162 42.7333 39.4212 42.7321H39.3612ZM39.3612 42.7321C39.3937 42.7333 39.4162 42.7333 39.4212 42.7321H39.3612ZM39.3612 42.7321C39.3937 42.7333 39.4162 42.7333 39.4212 42.7321H39.3612ZM39.3612 42.7321C39.3937 42.7333 39.4162 42.7333 39.4212 42.7321H39.3612ZM39.3612 42.7321C39.3937 42.7333 39.4162 42.7333 39.4212 42.7321H39.3612ZM39.3612 42.7321C39.3937 42.7333 39.4162 42.7333 39.4212 42.7321H39.3612ZM39.3612 42.7321C39.3937 42.7333 39.4162 42.7333 39.4212 42.7321H39.3612ZM39.3612 42.7321C39.3937 42.7333 39.4162 42.7333 39.4212 42.7321H39.3612ZM39.3612 42.7321C39.3937 42.7333 39.4162 42.7333 39.4212 42.7321H39.3612ZM39.3612 42.7321C39.3937 42.7333 39.4162 42.7333 39.4212 42.7321H39.3612ZM39.3612 42.7321C39.3937 42.7333 39.4162 42.7333 39.4212 42.7321H39.3612ZM39.3612 42.7321C39.3937 42.7333 39.4162 42.7333 39.4212 42.7321H39.3612ZM39.3612 42.7321C39.3937 42.7333 39.4162 42.7333 39.4212 42.7321H39.3612ZM39.3612 42.7321C39.3937 42.7333 39.4162 42.7333 39.4212 42.7321H39.3612ZM39.3612 42.7321C39.3937 42.7333 39.4162 42.7333 39.4212 42.7321H39.3612Z" fill="#18466F"/>
    <path d="M39.3612 42.7321C39.3937 42.7333 39.4162 42.7333 39.4212 42.7321H39.3612ZM39.3612 42.7321C39.3937 42.7333 39.4162 42.7333 39.4212 42.7321H39.3612ZM39.3612 42.7321C39.3937 42.7333 39.4162 42.7333 39.4212 42.7321H39.3612ZM39.3612 42.7321C39.3937 42.7333 39.4162 42.7333 39.4212 42.7321H39.3612ZM39.3612 42.7321C39.3937 42.7333 39.4162 42.7333 39.4212 42.7321H39.3612ZM39.3612 42.7321C39.3937 42.7333 39.4162 42.7333 39.4212 42.7321H39.3612ZM39.3612 42.7321C39.3937 42.7333 39.4162 42.7333 39.4212 42.7321H39.3612ZM39.3612 42.7321C39.3937 42.7333 39.4162 42.7333 39.4212 42.7321H39.3612ZM39.3612 42.7321C39.3937 42.7333 39.4162 42.7333 39.4212 42.7321H39.3612ZM39.3612 42.7321C39.3937 42.7333 39.4162 42.7333 39.4212 42.7321H39.3612ZM39.3612 42.7321C39.3937 42.7333 39.4162 42.7333 39.4212 42.7321H39.3612ZM39.3612 42.7321C39.3937 42.7333 39.4162 42.7333 39.4212 42.7321H39.3612ZM39.3612 42.7321C39.3937 42.7333 39.4162 42.7333 39.4212 42.7321H39.3612ZM39.3612 42.7321C39.3937 42.7333 39.4162 42.7333 39.4212 42.7321H39.3612ZM39.3612 42.7321C39.3937 42.7333 39.4162 42.7333 39.4212 42.7321H39.3612ZM39.3612 42.7321C39.3937 42.7333 39.4162 42.7333 39.4212 42.7321H39.3612ZM39.3612 42.7321C39.3937 42.7333 39.4162 42.7333 39.4212 42.7321H39.3612ZM39.3612 42.7321C39.3937 42.7333 39.4162 42.7333 39.4212 42.7321H39.3612ZM39.3612 42.7321C39.3937 42.7333 39.4162 42.7333 39.4212 42.7321H39.3612ZM39.3612 42.7321C39.3937 42.7333 39.4162 42.7333 39.4212 42.7321H39.3612ZM39.3612 42.7321C39.3937 42.7333 39.4162 42.7333 39.4212 42.7321H39.3612ZM39.3612 42.7321C39.3937 42.7333 39.4162 42.7333 39.4212 42.7321H39.3612ZM39.3612 42.7321C39.3937 42.7333 39.4162 42.7333 39.4212 42.7321H39.3612ZM39.3612 42.7321C39.3937 42.7333 39.4162 42.7333 39.4212 42.7321H39.3612ZM39.3612 42.7321C39.3937 42.7333 39.4162 42.7333 39.4212 42.7321H39.3612ZM39.3612 42.7321C39.3937 42.7333 39.4162 42.7333 39.4212 42.7321H39.3612ZM42.3079 40.573C44.2769 37.9523 46.2335 35.3228 48.215 32.7121C49.0877 31.5625 49.5465 30.3028 49.5152 28.8493C49.484 27.3344 49.509 25.8183 49.509 24.3034C49.509 22.2256 49.524 20.149 49.504 18.0712C49.4965 17.1656 49.1002 16.4038 48.4113 15.8271C47.3712 14.9589 46.1872 14.7588 44.9583 15.3342C43.7381 15.9046 43.0905 16.9216 43.0793 18.2789C43.058 20.5744 43.0743 22.8711 43.0705 25.1678C43.0705 25.3617 43.153 25.7019 42.763 25.4054C42.6555 25.3554 42.5479 25.3041 42.4404 25.2541C42.3792 25.2428 42.3167 25.2378 42.2566 25.2203C40.3201 24.6636 38.6248 25.0539 37.1884 26.4988C35.3481 28.3489 33.4991 30.1903 31.655 32.0354C30.3086 33.3814 29.6222 35.0038 29.621 36.9115C29.6197 38.584 29.621 40.2565 29.621 41.929C29.621 42.5369 29.3109 42.8422 28.6908 42.8447C27.5394 42.8484 26.8356 43.5564 26.8318 44.7186C26.8293 45.4841 26.8318 46.2497 26.8306 47.0153C26.8306 48.1674 27.1531 48.6402 28.232 49.0668C33.0115 49.0693 37.791 49.0718 42.5717 49.0743C43.5918 48.7415 44.0369 48.2024 44.0532 47.2304C44.0682 46.371 44.0719 45.5116 44.0519 44.6523C44.0282 43.5439 43.3068 42.8497 42.2129 42.8447C42.0879 42.8434 41.9616 42.8334 41.8378 42.8472C41.5653 42.8759 41.4853 42.7759 41.5215 42.4994C41.6153 41.7851 41.8778 41.1471 42.3079 40.573ZM41.8378 44.5834C42.1991 44.5822 42.3204 44.6623 42.3004 45.04C42.2666 45.678 42.2967 46.3185 42.2866 46.9577C42.2841 47.0615 42.3779 47.2117 42.1966 47.2729C41.9954 47.2804 41.7928 47.2942 41.5915 47.2942C37.4097 47.2955 33.229 47.2905 29.0484 47.303C28.6946 47.3042 28.5646 47.2329 28.5858 46.8539C28.6246 46.1846 28.6083 45.5129 28.6146 44.8424C28.6146 44.8099 28.6146 44.7786 28.6133 44.7473C28.6208 44.716 28.6271 44.6848 28.6333 44.6535C28.7484 44.5297 28.8971 44.5947 29.0284 44.5947C33.2978 44.591 37.5684 44.596 41.8378 44.5834ZM41.3253 38.9192C40.5626 39.915 39.95 40.9595 39.7563 42.2154C39.7563 42.238 39.7563 42.2592 39.755 42.2792C39.7475 42.8459 39.7275 42.8459 39.1524 42.8459C36.7383 42.8459 34.3242 42.8472 31.9101 42.8409C31.7513 42.8409 31.5713 42.921 31.4275 42.7771C31.4163 42.7583 31.4013 42.7396 31.3925 42.7196C31.39 42.7096 31.4 42.6958 31.4038 42.6833C31.4038 42.6533 31.405 42.6232 31.405 42.5932C31.36 40.5905 31.3487 38.5877 31.41 36.5863C31.415 36.5237 31.42 36.4612 31.425 36.3986C31.495 35.2215 31.9901 34.2245 32.7977 33.4014C34.7255 31.4387 36.6708 29.496 38.6286 27.5646C39.7313 26.4762 41.5953 26.4637 42.7755 27.4932C43.1668 27.8348 43.178 28.0424 42.8005 28.4202C40.9314 30.2853 39.0599 32.1467 37.1896 34.0106C37.0021 34.1982 36.8058 34.3796 36.6345 34.5823C36.297 34.9838 36.3232 35.4417 36.6846 35.7957C37.0421 36.1459 37.5209 36.1647 37.8985 35.8132C38.2873 35.4517 38.6548 35.0664 39.0299 34.6911C40.7089 33.0111 42.3804 31.3223 44.0707 29.6549C44.5945 29.137 44.837 28.539 44.8358 27.8122C44.8295 24.6699 44.832 21.5288 44.8345 18.3865C44.8345 17.6847 45.1996 17.1155 45.7697 16.8954C46.3348 16.6765 46.9924 16.8553 47.4262 17.3432C47.6425 17.5884 47.745 17.8698 47.745 18.1988C47.7425 21.8878 47.7475 25.5768 47.74 29.2658C47.74 30.1102 47.3999 30.8382 46.8998 31.505C45.0421 33.9756 43.203 36.4637 41.3253 38.9192ZM39.4212 42.7321H39.3612C39.3937 42.7333 39.4162 42.7333 39.4212 42.7321ZM39.3612 42.7321C39.3937 42.7333 39.4162 42.7333 39.4212 42.7321H39.3612ZM39.3612 42.7321C39.3937 42.7333 39.4162 42.7333 39.4212 42.7321H39.3612ZM39.3612 42.7321C39.3937 42.7333 39.4162 42.7333 39.4212 42.7321H39.3612ZM39.3612 42.7321C39.3937 42.7333 39.4162 42.7333 39.4212 42.7321H39.3612ZM39.3612 42.7321C39.3937 42.7333 39.4162 42.7333 39.4212 42.7321H39.3612ZM39.3612 42.7321C39.3937 42.7333 39.4162 42.7333 39.4212 42.7321H39.3612ZM39.3612 42.7321C39.3937 42.7333 39.4162 42.7333 39.4212 42.7321H39.3612ZM39.3612 42.7321C39.3937 42.7333 39.4162 42.7333 39.4212 42.7321H39.3612ZM39.3612 42.7321C39.3937 42.7333 39.4162 42.7333 39.4212 42.7321H39.3612ZM39.3612 42.7321C39.3937 42.7333 39.4162 42.7333 39.4212 42.7321H39.3612ZM39.3612 42.7321C39.3937 42.7333 39.4162 42.7333 39.4212 42.7321H39.3612ZM39.3612 42.7321C39.3937 42.7333 39.4162 42.7333 39.4212 42.7321H39.3612ZM39.3612 42.7321C39.3937 42.7333 39.4162 42.7333 39.4212 42.7321H39.3612ZM39.3612 42.7321C39.3937 42.7333 39.4162 42.7333 39.4212 42.7321H39.3612ZM39.3612 42.7321C39.3937 42.7333 39.4162 42.7333 39.4212 42.7321H39.3612ZM39.3612 42.7321C39.3937 42.7333 39.4162 42.7333 39.4212 42.7321H39.3612ZM39.3612 42.7321C39.3937 42.7333 39.4162 42.7333 39.4212 42.7321H39.3612ZM39.3612 42.7321C39.3937 42.7333 39.4162 42.7333 39.4212 42.7321H39.3612ZM39.3612 42.7321C39.3937 42.7333 39.4162 42.7333 39.4212 42.7321H39.3612ZM39.3612 42.7321C39.3937 42.7333 39.4162 42.7333 39.4212 42.7321H39.3612ZM39.3612 42.7321C39.3937 42.7333 39.4162 42.7333 39.4212 42.7321H39.3612ZM39.3612 42.7321C39.3937 42.7333 39.4162 42.7333 39.4212 42.7321H39.3612ZM39.3612 42.7321C39.3937 42.7333 39.4162 42.7333 39.4212 42.7321H39.3612ZM39.3612 42.7321C39.3937 42.7333 39.4162 42.7333 39.4212 42.7321H39.3612ZM39.3612 42.7321C39.3937 42.7333 39.4162 42.7333 39.4212 42.7321H39.3612ZM39.3612 42.7321C39.3937 42.7333 39.4162 42.7333 39.4212 42.7321H39.3612Z" fill="#18466F"/>
    <path d="M21.2626 42.8483C20.8887 42.8883 20.8312 42.7357 20.835 42.4017C20.8512 40.5266 20.8575 38.6502 20.8387 36.7751C20.8187 34.8686 20.0774 33.275 18.7222 31.939C17.1094 30.349 15.5117 28.7416 13.9289 27.1229C13.0463 26.2197 12.1487 25.3703 10.8535 25.0964C9.6658 24.8462 8.53313 24.9888 7.45922 25.5342C7.35045 25.4004 7.39296 25.2728 7.39296 25.1552C7.38921 22.8735 7.39796 20.5918 7.38796 18.3101C7.38046 16.45 5.98274 15.0377 4.18372 15.0477C2.33344 15.0589 0.954485 16.4612 0.954485 18.3313C0.954485 21.8002 0.978238 25.2703 0.943233 28.7391C0.928231 30.2615 1.37955 31.5762 2.29469 32.7783C4.26248 35.3628 6.19778 37.9697 8.15057 40.5654C8.52313 41.0607 8.77817 41.6074 8.90194 42.2116C9.0307 42.8396 9.02195 42.8433 8.40061 42.8446C7.09166 42.8446 6.41656 43.5176 6.40781 44.8348C6.40406 45.5528 6.40656 46.2721 6.40781 46.9914C6.40906 48.1785 6.78161 48.7002 7.89178 49.0742C12.6725 49.0717 17.452 49.0692 22.2314 49.0667C23.3116 48.6401 23.6329 48.1698 23.6329 47.0164C23.6329 46.4235 23.5929 45.8255 23.6417 45.2363C23.7717 43.6652 23.0603 42.6594 21.2626 42.8483ZM3.54238 31.4699C2.98854 30.7331 2.71225 29.9187 2.716 28.9893C2.72725 25.4591 2.71975 21.9278 2.721 18.3977C2.721 17.4607 3.31609 16.8152 4.17997 16.809C5.02385 16.8027 5.62769 17.4682 5.62894 18.4202C5.63144 21.5287 5.63769 24.6373 5.62394 27.7458C5.62144 28.5102 5.86648 29.1331 6.41156 29.6735C8.43061 31.6738 10.4322 33.6915 12.445 35.6993C12.9726 36.2259 13.6639 36.1608 13.9677 35.5642C14.1965 35.1151 14.0265 34.7561 13.6977 34.4308C12.51 33.2562 11.3248 32.0791 10.1409 30.8994C9.322 30.0838 8.50437 29.267 7.6905 28.4464C7.27794 28.0311 7.29044 27.8322 7.73426 27.4556C8.92694 26.4449 10.7635 26.4987 11.8774 27.6032C13.8177 29.5284 15.753 31.4574 17.6708 33.4051C18.4809 34.2282 18.9685 35.2239 19.0397 36.3985C19.0397 36.4298 19.0435 36.4623 19.0447 36.4936C19.141 37.0015 19.0835 37.5156 19.0847 38.026C19.086 39.5484 19.0685 41.0695 19.0597 42.5919V42.6832C19.0522 42.7145 19.0447 42.7457 19.036 42.777C18.8934 42.9221 18.7134 42.8408 18.5546 42.8421C16.1393 42.8483 13.7252 42.8458 11.3098 42.8458C10.7222 42.8458 10.716 42.8458 10.7085 42.2366V42.2153C10.5172 40.9406 9.88208 39.8899 9.11197 38.8816C7.23543 36.426 5.39891 33.9404 3.54238 31.4699ZM21.5101 47.3016C20.0274 47.2879 18.5459 47.2954 17.0632 47.2954C14.3015 47.2954 11.5398 47.2954 8.77817 47.2941C8.60814 47.2941 8.43686 47.2804 8.26684 47.2729C8.15307 47.2591 8.17308 47.1703 8.17308 47.0977C8.17182 46.3497 8.17808 45.6016 8.16807 44.8523C8.16557 44.6446 8.24059 44.5884 8.43812 44.5884C12.8638 44.5934 17.2895 44.5921 21.7151 44.5959C21.7539 44.5959 21.7914 44.6334 21.8301 44.6534C21.8401 44.6734 21.8514 44.6922 21.8576 44.7122C21.8601 44.7222 21.8526 44.7347 21.8501 44.7472C21.8501 44.7785 21.8489 44.8098 21.8489 44.841C21.8551 45.5428 21.8464 46.2458 21.8764 46.9464C21.8889 47.2478 21.7889 47.3041 21.5101 47.3016Z" fill="#18466F"/>
    <path d="M35.2082 17.6833C34.3169 13.4477 29.0698 11.4112 25.5418 13.9306C25.2967 14.1057 25.1592 14.1082 24.9179 13.9281C23.909 13.1787 22.7626 12.8247 21.1274 12.8235C19.1308 12.9136 17.1868 13.848 15.9591 15.9195C14.6101 18.1937 14.9139 20.4729 16.3816 22.5657C18.5407 25.6443 21.6262 27.5394 24.9879 29.0443C25.213 29.1444 25.413 29.0718 25.618 28.9867C26.6607 28.5614 27.6483 28.026 28.6047 27.4356C30.6913 26.1484 32.6253 24.6823 34.0481 22.642C35.0895 21.1459 35.5908 19.5047 35.2082 17.6833ZM32.3991 21.9152C31.2764 23.3901 29.8274 24.4984 28.2997 25.5129C27.4158 26.0996 26.4944 26.625 25.543 27.0991C25.3555 27.1929 25.1992 27.2417 24.9792 27.1304C22.7139 25.9758 20.5823 24.6323 18.807 22.7859C17.8981 21.8414 17.1455 20.7957 16.9392 19.4497C16.9305 19.3884 16.9117 19.3271 16.9092 19.2658C16.9055 19.1407 16.908 19.0156 16.908 18.8905C16.913 15.807 20.321 13.6629 23.1427 14.9676C23.6552 15.2053 24.1228 15.5117 24.5554 15.8758C25.0129 16.2598 25.323 16.2748 25.8243 15.9483C25.9943 15.8382 26.1431 15.6981 26.3056 15.5768C27.8009 14.4522 29.4161 14.2408 31.0951 15.0677C32.7441 15.8795 33.5767 17.2568 33.5505 19.1044C33.5355 20.1802 33.0317 21.0834 32.3991 21.9152Z" fill="#18466F"/>
    <path d="M41.5816 11.1911C40.1014 10.2041 38.6262 9.20963 37.1372 8.23641C36.8821 8.07003 36.7946 7.89615 36.7971 7.59468C36.8109 5.62572 36.8046 3.65675 36.8034 1.68779C36.8034 0.865931 36.5221 0.580719 35.7157 0.579468H32.4352C31.4926 0.579468 31.2388 0.833407 31.2388 1.7716C31.2375 2.58721 31.2388 3.40407 31.2388 4.29223C29.421 3.08008 27.6758 1.93297 25.9517 0.755849C25.4367 0.404338 25.0066 0.423102 24.499 0.764605C21.3786 2.86492 18.2456 4.94646 15.1164 7.03426C13.0135 8.43781 10.9095 9.83885 8.80791 11.2436C8.30659 11.5789 8.17157 12.0793 8.45036 12.5246C8.72415 12.9624 9.25673 13.0462 9.76556 12.7335C9.91058 12.6447 10.0569 12.5584 10.2031 12.4696C10.3456 12.3194 10.5169 12.2106 10.7057 12.1268C10.7657 12.088 10.8245 12.0505 10.8832 12.0117C11.1995 11.8003 11.5146 11.5889 11.8309 11.3775C11.8646 11.345 11.8946 11.3074 11.9334 11.2824C16.2778 8.38402 20.6259 5.48937 24.9653 2.58346C25.1966 2.42834 25.3342 2.47588 25.5354 2.61098C27.8783 4.1834 30.2299 5.74455 32.5752 7.31322C34.5968 8.66422 36.6134 10.0227 38.6324 11.3775C38.9587 11.5614 39.285 11.7453 39.5501 12.018C39.6188 12.0542 39.6888 12.0905 39.7576 12.1268C39.9464 12.2094 40.1164 12.3207 40.2602 12.4696C40.3802 12.5396 40.5039 12.6047 40.6202 12.6797C41.1853 13.0437 41.7241 12.9849 42.0129 12.5246C42.3105 12.0492 42.1579 11.5764 41.5816 11.1911ZM35.0544 6.83912C34.368 6.38003 33.7667 5.97222 33.1591 5.57568C33.0353 5.49437 33.0016 5.40305 33.0016 5.2667C33.0053 4.37979 33.0091 3.49163 32.9991 2.60347C32.9966 2.39582 33.0641 2.33827 33.2654 2.34328C33.7629 2.35579 34.2618 2.35579 34.7593 2.34328C34.9744 2.33827 35.0606 2.39081 35.0594 2.62724C35.0494 3.99451 35.0544 5.36302 35.0544 6.83912Z" fill="#18466F"/>
    <path d="M12.7464 22.4633C12.7464 22.5421 12.7514 22.6197 12.7464 22.6972C12.7139 23.2101 12.3714 23.5528 11.8863 23.5604C11.3687 23.5691 10.9874 23.2301 10.9862 22.696C10.9787 19.4661 10.9887 16.2362 10.9824 13.0075C10.9824 12.7311 11.0924 12.5522 11.3 12.4071C11.5863 12.252 11.8876 12.2032 12.2051 12.2845C12.6089 12.5197 12.7552 12.8674 12.7539 13.3365C12.7402 16.3788 12.7464 19.421 12.7464 22.4633Z" fill="#18466F"/>
    <path d="M39.4858 22.6097C39.4858 23.0538 39.3033 23.3853 38.8932 23.5166C38.5031 23.643 38.1206 23.5804 37.8905 23.1664C37.8868 23.0988 37.8843 23.0325 37.8818 22.965C37.8805 22.9312 37.878 22.8974 37.8768 22.8636C37.803 20.9647 37.8668 19.0671 37.8505 17.1694C37.8393 15.951 37.8468 14.7326 37.848 13.5142C37.848 13.2965 37.8543 13.1226 37.8755 12.9825C37.8805 12.9488 37.8855 12.9175 37.893 12.8875C37.9605 12.591 38.1231 12.4709 38.5019 12.3871H38.5031C38.5831 12.3696 38.6732 12.3533 38.7732 12.3371C38.8132 12.3308 38.8544 12.3246 38.8982 12.3183C38.9169 12.3145 38.9344 12.312 38.9519 12.3108C38.9832 12.3233 39.0095 12.3458 39.032 12.3821C39.2082 12.4071 39.2632 12.5822 39.387 12.6711C39.5008 12.95 39.4833 13.244 39.4833 13.5355C39.4833 16.5602 39.4808 19.5849 39.4858 22.6097Z" fill="#18466F"/>
    <path d="M37.8812 22.9649C37.8612 22.9774 37.835 22.9849 37.8 22.9886C37.6962 22.8523 37.7175 22.6922 37.7175 22.5371C37.7162 19.446 37.7162 16.355 37.7175 13.2639C37.7175 13.1251 37.6875 12.98 37.79 12.8599C37.8362 12.8624 37.87 12.8724 37.8925 12.8874C37.9738 12.9399 37.9275 13.06 37.9275 13.1401C37.9325 16.3262 37.9325 19.5111 37.9275 22.6972C37.9275 22.7822 37.9838 22.9123 37.8812 22.9649Z" fill="#18466F"/>
    <path d="M39.0315 12.3821C39.0165 12.3883 39.0027 12.3958 38.9877 12.4008C38.316 12.6218 37.9801 13.1076 37.9801 13.8582C37.9801 16.7628 37.9801 19.6687 37.9788 22.5734C37.9788 22.7748 38.0076 22.9824 37.8901 23.1663C37.82 23.1275 37.7875 23.0687 37.8 22.9887C37.8388 22.9499 37.8626 22.9074 37.8763 22.8636C37.9138 22.746 37.8826 22.6184 37.8838 22.4996C37.8863 19.4473 37.8863 16.395 37.8838 13.3428C37.8826 13.2252 37.9163 13.0963 37.8751 12.9825C37.8588 12.9387 37.8338 12.8974 37.79 12.8599C37.8525 12.5459 38.0401 12.3595 38.3551 12.3007C38.4801 12.3295 38.6014 12.312 38.7214 12.2857C38.7427 12.282 38.7627 12.277 38.7839 12.272C38.7977 12.2807 38.8102 12.2895 38.8227 12.2982C38.8702 12.292 38.914 12.2932 38.9515 12.3108C38.9827 12.3233 39.009 12.3458 39.0315 12.3821Z" fill="#18466F"/>
    <path d="M38.8229 12.2981C38.7679 12.3257 38.7379 12.3157 38.7216 12.2856C38.7116 12.2681 38.7066 12.2431 38.7041 12.2156C38.7316 12.2343 38.7579 12.2531 38.7841 12.2719C38.7979 12.2806 38.8104 12.2894 38.8229 12.2981Z" fill="#18466F"/>
    <path d="M38.8225 12.2981C38.8063 12.3131 38.79 12.3257 38.7725 12.3369C38.6825 12.3995 38.5938 12.4157 38.5025 12.387H38.5013C38.4525 12.3707 38.4037 12.3419 38.355 12.3006C38.4712 12.2731 38.5875 12.2443 38.7038 12.2156C38.7313 12.2343 38.7575 12.2531 38.7838 12.2719C38.7975 12.2806 38.81 12.2894 38.8225 12.2981Z" fill="#18466F"/>
    <path d="M36.6434 1.3465V7.97892C36.6284 7.97892 36.6122 7.97892 36.5972 7.97892V1.34399C36.6122 1.34399 36.6284 1.34525 36.6434 1.3465Z" fill="#18466F"/>
    </g>
    <defs>
    <clipPath id="clip0_174_165">
    <rect width="48.5736" height="48.5736" fill="white" transform="translate(0.942871 0.500732)"/>
    </clipPath>
    </defs>
</svg>