<svg width="38" height="38" viewBox="0 0 38 38" fill="none" xmlns="http://www.w3.org/2000/svg">
<g clip-path="url(#clip0_863_94)">
<path fill-rule="evenodd" clip-rule="evenodd" d="M18.9351 2.81765C9.44962 2.81765 2.66409 9.60318 2.66409 19.0886C2.66409 28.5741 9.44962 35.3596 18.9351 35.3596C28.4205 35.3596 35.206 28.5741 35.206 19.0886C35.206 9.60318 28.4205 2.81765 18.9351 2.81765ZM0.856201 19.0886C0.856201 8.60472 8.45115 1.00977 18.9351 1.00977C29.419 1.00977 37.0139 8.60472 37.0139 19.0886C37.0139 29.5725 29.419 37.1675 18.9351 37.1675C8.45115 37.1675 0.856201 29.5725 0.856201 19.0886Z" fill="white" stroke="white" stroke-width="0.982213"/>
<!-- <path fill-rule="evenodd" clip-rule="evenodd" d="M17.7635 10.9963C17.4951 11.0146 17.3699 11.0471 17.291 11.0798C16.9597 11.217 16.6965 11.4802 16.5593 11.8115C16.5266 11.8904 16.4941 12.0156 16.4758 12.2839C16.4569 12.5604 16.4564 12.9182 16.4564 13.4555V15.6005C16.4564 15.6013 16.4583 15.6916 16.4464 15.78C16.431 15.8946 16.3799 16.1269 16.1766 16.3302C15.9733 16.5335 15.7411 16.5845 15.6264 16.6C15.538 16.6118 15.4478 16.61 15.447 16.61H13.3019C12.7646 16.61 12.4068 16.6105 12.1304 16.6293C11.862 16.6476 11.7368 16.6802 11.6579 16.7129C11.3266 16.8501 11.0635 17.1133 10.9262 17.4446C10.8936 17.5235 10.861 17.6487 10.8427 17.917C10.8238 18.1935 10.8233 18.5513 10.8233 19.0885C10.8233 19.6258 10.8238 19.9836 10.8427 20.26C10.861 20.5284 10.8936 20.6536 10.9262 20.7325C11.0635 21.0638 11.3266 21.327 11.6579 21.4642C11.7368 21.4969 11.862 21.5294 12.1304 21.5477C12.4068 21.5666 12.7646 21.5671 13.3019 21.5671H15.447C15.447 21.5671 15.5377 21.5652 15.6264 21.5771C15.7411 21.5925 15.9733 21.6436 16.1766 21.8469C16.3799 22.0502 16.431 22.2824 16.4464 22.3971C16.4583 22.4858 16.4564 22.5765 16.4564 22.5765V24.7216C16.4564 25.2589 16.4569 25.6167 16.4758 25.8931C16.4941 26.1615 16.5266 26.2867 16.5593 26.3656C16.6965 26.6969 16.9597 26.96 17.291 27.0973C17.3699 27.1299 17.4951 27.1625 17.7635 27.1808C18.0399 27.1997 18.3977 27.2002 18.935 27.2002C19.4722 27.2002 19.8301 27.1997 20.1065 27.1808C20.3748 27.1625 20.5 27.1299 20.5789 27.0973C20.9102 26.96 21.1734 26.6969 21.3106 26.3656C21.3433 26.2867 21.3759 26.1615 21.3942 25.8931C21.413 25.6167 21.4135 25.2589 21.4135 24.7216V22.5765C21.4135 22.5765 21.4116 22.4858 21.4235 22.3971C21.439 22.2824 21.4901 22.0502 21.6933 21.8469C21.8966 21.6436 22.1289 21.5925 22.2435 21.5771C22.3323 21.5652 22.423 21.5671 22.423 21.5671H24.568C25.1053 21.5671 25.4631 21.5666 25.7396 21.5477C26.0079 21.5294 26.1331 21.4969 26.212 21.4642C26.5433 21.327 26.8065 21.0638 26.9437 20.7325C26.9764 20.6536 27.0089 20.5284 27.0273 20.2601C27.0461 19.9836 27.0466 19.6258 27.0466 19.0885C27.0466 18.5513 27.0461 18.1935 27.0273 17.917C27.0089 17.6487 26.9764 17.5235 26.9437 17.4446C26.8065 17.1133 26.5433 16.8501 26.212 16.7129C26.1331 16.6802 26.0079 16.6476 25.7396 16.6293C25.4631 16.6105 25.1053 16.61 24.568 16.61H22.423C22.423 16.61 22.3323 16.6119 22.2435 16.6C22.1289 16.5845 21.8966 16.5335 21.6933 16.3302C21.4901 16.1269 21.439 15.8946 21.4235 15.78C21.4116 15.6912 21.4135 15.6005 21.4135 15.6005V13.4555C21.4135 12.9182 21.413 12.5604 21.3942 12.2839C21.3759 12.0156 21.3433 11.8904 21.3106 11.8115C21.1734 11.4802 20.9102 11.217 20.5789 11.0798C20.5 11.0471 20.3748 11.0146 20.1065 10.9963C19.8301 10.9774 19.4722 10.9769 18.935 10.9769C18.3977 10.9769 18.0399 10.9774 17.7635 10.9963ZM18.9049 9.17432H18.965C19.4644 9.17431 19.8841 9.1743 20.2292 9.19785C20.5893 9.22242 20.9336 9.27561 21.2688 9.41444C22.0417 9.73461 22.6558 10.3487 22.976 11.1217C23.1148 11.4568 23.168 11.8011 23.1926 12.1612C23.2161 12.5064 23.2161 12.926 23.2161 13.4254V14.8074H24.5981C25.0975 14.8074 25.5171 14.8074 25.8623 14.8309C26.2224 14.8555 26.5667 14.9087 26.9018 15.0475C27.6748 15.3677 28.2889 15.9818 28.6091 16.7547C28.7479 17.0899 28.8011 17.4342 28.8257 17.7943C28.8492 18.1394 28.8492 18.5591 28.8492 19.0585V19.1186C28.8492 19.6179 28.8492 20.0376 28.8257 20.3828C28.8011 20.7429 28.7479 21.0872 28.6091 21.4223C28.2889 22.1953 27.6748 22.8094 26.9018 23.1295C26.5667 23.2684 26.2224 23.3216 25.8623 23.3461C25.5171 23.3697 25.0975 23.3697 24.5981 23.3697H23.2161V24.7516C23.2161 25.251 23.2161 25.6707 23.1926 26.0158C23.168 26.3759 23.1148 26.7202 22.976 27.0554C22.6558 27.8284 22.0417 28.4425 21.2688 28.7626C20.9336 28.9015 20.5893 28.9547 20.2292 28.9792C19.8841 29.0028 19.4644 29.0028 18.965 29.0028H18.9049C18.4056 29.0028 17.9859 29.0028 17.6407 28.9792C17.2806 28.9547 16.9363 28.9015 16.6012 28.7626C15.8282 28.4425 15.2141 27.8284 14.894 27.0554C14.7551 26.7202 14.7019 26.3759 14.6774 26.0158C14.6538 25.6707 14.6538 25.251 14.6538 24.7516V23.3697H13.2719C12.7725 23.3697 12.3528 23.3697 12.0077 23.3461C11.6476 23.3216 11.3033 23.2684 10.9681 23.1295C10.1951 22.8094 9.58104 22.1953 9.26088 21.4223C9.12205 21.0872 9.06885 20.7429 9.04428 20.3828C9.02074 20.0376 9.02074 19.6179 9.02075 19.1186V19.0585C9.02074 18.5591 9.02074 18.1394 9.04428 17.7943C9.06885 17.4342 9.12205 17.0899 9.26088 16.7547C9.58104 15.9818 10.1951 15.3677 10.9681 15.0475C11.3033 14.9087 11.6476 14.8555 12.0077 14.8309C12.3528 14.8074 12.7725 14.8074 13.2719 14.8074H14.6538V13.4254C14.6538 12.926 14.6538 12.5064 14.6774 12.1612C14.7019 11.8011 14.7551 11.4568 14.894 11.1217C15.2141 10.3487 15.8282 9.73461 16.6012 9.41444C16.9363 9.27561 17.2806 9.22242 17.6407 9.19785C17.9859 9.1743 18.4056 9.17431 18.9049 9.17432Z" fill="white"/> -->
<path d="M10.9681 15.0475C10.1951 15.3677 9.58104 15.9818 9.26088 16.7547C9.12205 17.0899 9.06885 17.4342 9.04428 17.7943C9.02074 18.1394 9.02074 18.5591 9.02075 19.0585V19.1186C9.02074 19.6179 9.02074 20.0376 9.04428 20.3828C9.06885 20.7429 9.12205 21.0872 9.26088 21.4223C9.58104 22.1953 10.1951 22.8094 10.9681 23.1295C11.3033 23.2684 11.6476 23.3216 12.0077 23.3461C12.3528 23.3697 12.7725 23.3697 13.2719 23.3697H14.6538V24.7516C14.6538 25.251 14.6538 25.6707 14.6774 26.0158C14.7019 26.3759 14.7551 26.7202 14.894 27.0554C15.2141 27.8284 15.8282 28.4425 16.6012 28.7626C16.9363 28.9015 17.2806 28.9547 17.6407 28.9792C17.9859 29.0028 18.4056 29.0028 18.9049 29.0028H18.965C19.4644 29.0028 19.8841 29.0028 20.2292 28.9792C20.5893 28.9547 20.9336 28.9015 21.2688 28.7626C22.0417 28.4425 22.6558 27.8284 22.976 27.0554C23.1148 26.7202 23.168 26.3759 23.1926 26.0158C23.2161 25.6707 23.2161 25.251 23.2161 24.7516V23.3697H24.5981C25.0975 23.3697 25.5171 23.3697 25.8623 23.3461C26.2224 23.3216 26.5667 23.2684 26.9018 23.1295C27.6748 22.8094 28.2889 22.1953 28.6091 21.4223C28.7479 21.0872 28.8011 20.7429 28.8257 20.3828C28.8492 20.0376 28.8492 19.6179 28.8492 19.1186V19.0585C28.8492 18.5591 28.8492 18.1394 28.8257 17.7943C28.8011 17.4342 28.7479 17.0899 28.6091 16.7547C28.2889 15.9818 27.6748 15.3677 26.9018 15.0475C26.5667 14.9087 26.2224 14.8555 25.8623 14.8309C25.5171 14.8074 25.0975 14.8074 24.5981 14.8074H23.2161V13.4254C23.2161 12.926 23.2161 12.5064 23.1926 12.1612C23.168 11.8011 23.1148 11.4568 22.976 11.1217C22.6558 10.3487 22.0417 9.73461 21.2688 9.41444C20.9336 9.27561 20.5893 9.22242 20.2292 9.19785C19.8841 9.1743 19.4644 9.17431 18.965 9.17432H18.9049C18.4056 9.17431 17.9859 9.1743 17.6407 9.19785C17.2806 9.22242 16.9363 9.27561 16.6012 9.41444M10.9681 15.0475L11.313 15.8802M10.9681 15.0475C11.3033 14.9087 11.6476 14.8555 12.0077 14.8309C12.3528 14.8074 12.7725 14.8074 13.2719 14.8074H14.6538V13.4254C14.6538 12.926 14.6538 12.5064 14.6774 12.1612C14.7019 11.8011 14.7551 11.4568 14.894 11.1217M14.894 11.1217L15.7266 11.4666M14.894 11.1217C15.2141 10.3487 15.8282 9.73461 16.6012 9.41444M16.6012 9.41444L16.9461 10.2471M17.291 11.0798C17.3699 11.0471 17.4951 11.0146 17.7635 10.9963C18.0399 10.9774 18.3977 10.9769 18.935 10.9769C19.4722 10.9769 19.8301 10.9774 20.1065 10.9963C20.3748 11.0146 20.5 11.0471 20.5789 11.0798C20.9102 11.217 21.1734 11.4802 21.3106 11.8115C21.3433 11.8904 21.3759 12.0156 21.3942 12.2839C21.413 12.5604 21.4135 12.9182 21.4135 13.4555V15.6005C21.4135 15.6005 21.4116 15.6912 21.4235 15.78C21.439 15.8946 21.4901 16.1269 21.6933 16.3302C21.8966 16.5335 22.1289 16.5845 22.2435 16.6C22.3323 16.6119 22.423 16.61 22.423 16.61H24.568C25.1053 16.61 25.4631 16.6105 25.7396 16.6293C26.0079 16.6476 26.1331 16.6802 26.212 16.7129C26.5433 16.8501 26.8065 17.1133 26.9437 17.4446C26.9764 17.5235 27.0089 17.6487 27.0273 17.917C27.0461 18.1935 27.0466 18.5513 27.0466 19.0885C27.0466 19.6258 27.0461 19.9836 27.0273 20.2601C27.0089 20.5284 26.9764 20.6536 26.9437 20.7325C26.8065 21.0638 26.5433 21.327 26.212 21.4642C26.1331 21.4969 26.0079 21.5294 25.7396 21.5477C25.4631 21.5666 25.1053 21.5671 24.568 21.5671H22.423C22.423 21.5671 22.3323 21.5652 22.2435 21.5771C22.1289 21.5925 21.8966 21.6436 21.6933 21.8469C21.4901 22.0502 21.439 22.2824 21.4235 22.3971C21.4116 22.4858 21.4135 22.5765 21.4135 22.5765V24.7216C21.4135 25.2589 21.413 25.6167 21.3942 25.8931C21.3759 26.1615 21.3433 26.2867 21.3106 26.3656C21.1734 26.6969 20.9102 26.96 20.5789 27.0973C20.5 27.1299 20.3748 27.1625 20.1065 27.1808C19.8301 27.1997 19.4722 27.2002 18.935 27.2002C18.3977 27.2002 18.0399 27.1997 17.7635 27.1808C17.4951 27.1625 17.3699 27.1299 17.291 27.0973C16.9597 26.96 16.6965 26.6969 16.5593 26.3656C16.5266 26.2867 16.4941 26.1615 16.4758 25.8931C16.4569 25.6167 16.4564 25.2589 16.4564 24.7216V22.5765C16.4564 22.5765 16.4583 22.4858 16.4464 22.3971C16.431 22.2824 16.3799 22.0502 16.1766 21.8469C15.9733 21.6436 15.7411 21.5925 15.6264 21.5771C15.5377 21.5652 15.447 21.5671 15.447 21.5671H13.3019C12.7646 21.5671 12.4068 21.5666 12.1304 21.5477C11.862 21.5294 11.7368 21.4969 11.6579 21.4642C11.3266 21.327 11.0635 21.0638 10.9262 20.7325C10.8936 20.6536 10.861 20.5284 10.8427 20.26C10.8238 19.9836 10.8233 19.6258 10.8233 19.0885C10.8233 18.5513 10.8238 18.1935 10.8427 17.917C10.861 17.6487 10.8936 17.5235 10.9262 17.4446C11.0635 17.1133 11.3266 16.8501 11.6579 16.7129C11.7368 16.6802 11.862 16.6476 12.1304 16.6293C12.4068 16.6105 12.7646 16.61 13.3019 16.61H15.447C15.4478 16.61 15.538 16.6118 15.6264 16.6C15.7411 16.5845 15.9733 16.5334 16.1766 16.3302C16.3799 16.1269 16.431 15.8946 16.4464 15.78C16.4583 15.6916 16.4564 15.6013 16.4564 15.6005V13.4555C16.4564 12.9182 16.4569 12.5604 16.4758 12.2839C16.4941 12.0156 16.5266 11.8904 16.5593 11.8115C16.6965 11.4802 16.9597 11.217 17.291 11.0798Z" stroke="white" stroke-width="1.5"/>
</g>
<defs>
<clipPath id="clip0_863_94">
<rect width="37.3241" height="37.3241" fill="white" transform="translate(0.272949 0.42627)"/>
</clipPath>
</defs>
</svg>